<?xml version="1.0"?>
<svg xmlns="http://www.w3.org/2000/svg" xmlns:xlink="http://www.w3.org/1999/xlink" xmlns:svgjs="http://svgjs.com/svgjs" version="1.1" width="512" height="512" x="0" y="0" viewBox="0 0 478 478.879" style="enable-background:new 0 0 512 512" xml:space="preserve" class=""><g><path xmlns="http://www.w3.org/2000/svg" d="m388.191406 241.515625-21.679687-18.710937c-1.527344-1.316407-2.289063-3.3125-2.027344-5.316407 2.371094-18.207031 1.890625-36.671875-1.414063-54.734375-.363281-1.984375.292969-4.015625 1.746094-5.410156l20.882813-20.027344-20.523438-46.914062-28.941406 2.128906c-2.054687.15625-4.042969-.757812-5.261719-2.417969-10.882812-14.726562-24.242187-27.449219-39.484375-37.597656-1.722656-1.148437-2.730469-3.101563-2.667969-5.171875l.847657-28.929688-47.707031-18.414062-18.707032 21.679688c-1.320312 1.523437-3.316406 2.289062-5.316406 2.03125-18.210938-2.375-36.679688-1.894532-54.746094 1.414062-1.984375.363281-4.015625-.292969-5.410156-1.75l-20.027344-20.882812-46.914062 20.527343 2.128906 28.9375c.152344 2.054688-.761719 4.039063-2.417969 5.265625-14.726562 10.882813-27.449219 24.242188-37.597656 39.480469-1.140625 1.734375-3.097656 2.742187-5.167969 2.671875l-28.933594-.851562-18.410156 47.710937 21.679688 18.707031c1.527344 1.320313 2.289062 3.316406 2.03125 5.316406-2.371094 18.210938-1.894532 36.675782 1.414062 54.738282.363282 1.984375-.292968 4.015625-1.75 5.410156l-20.882812 20.027344 20.527344 46.914062 28.9375-2.128906c2.054687-.15625 4.046874.753906 5.265624 2.417969 10.882813 14.726562 24.242188 27.449219 39.484376 37.597656 1.71875 1.148437 2.730468 3.101563 2.667968 5.167969l-.886718 28.933594 34.382812 13.285156v-33.84375c.078125-22.414063-9.21875-43.839844-25.644531-59.089844-38.707031-35.640625-51.644531-91.347656-32.605469-140.398438 19.039062-49.050781 66.171875-81.4375 118.789062-81.628906 52.617188-.1875 99.984376 31.859375 119.375 80.773438 19.394532 48.910156 6.859376 104.707031-31.589843 140.625-16.644531 15.382812-26.171875 36.972656-26.324219 59.632812v34.652344l42.507812-18.613281-2.144531-28.941407c-.15625-2.050781.753907-4.039062 2.40625-5.261718 14.730469-10.882813 27.453125-24.242188 37.601563-39.484375 1.148437-1.71875 3.101562-2.726563 5.167968-2.667969l28.929688.851562zm0 0" fill="#ffffff" data-original="#000000" style="" class=""/><path xmlns="http://www.w3.org/2000/svg" d="m147.296875 221.089844c0-5.652344-3.992187-10.515625-9.535156-11.617188-5.546875-1.101562-11.09375 1.863282-13.257813 7.085938-2.164062 5.222656-.335937 11.246094 4.363282 14.382812 4.699218 3.140625 10.964843 2.523438 14.960937-1.472656 2.226563-2.21875 3.476563-5.234375 3.46875-8.378906zm0 0" fill="#ffffff" data-original="#000000" style="" class=""/><path xmlns="http://www.w3.org/2000/svg" d="m203.101562 155.640625c-4.625-4.625-12.125-4.625-16.753906 0-4.628906 4.628906-4.628906 12.128906 0 16.757813 4.628906 4.625 12.128906 4.625 16.753906 0 2.234376-2.21875 3.488282-5.234376 3.488282-8.378907s-1.253906-6.160156-3.488282-8.378906zm0 0" fill="#ffffff" data-original="#000000" style="" class=""/><path xmlns="http://www.w3.org/2000/svg" d="m265.847656 221.089844c0-5.359375-3.601562-10.054688-8.78125-11.441406-5.179687-1.386719-10.644531.875-13.324218 5.519531-2.679688 4.644531-1.910157 10.507812 1.882812 14.300781 3.386719 3.386719 8.484375 4.402344 12.910156 2.566406 4.425782-1.832031 7.3125-6.152344 7.3125-10.941406zm0 0" fill="#ffffff" data-original="#000000" style="" class=""/><path xmlns="http://www.w3.org/2000/svg" d="m273.457031 280.277344c24.332031-22.695313 37.769531-54.734375 36.898438-88-1.777344-62.410156-52.515625-112.289063-114.953125-113-.359375 0-.730469-.003906-1.089844-.003906-47.84375.011718-90.78125 29.375-108.148438 73.953124-17.363281 44.582032-5.601562 95.25 29.625 127.621094 18.894532 17.527344 29.601563 42.160156 29.523438 67.929688v14.101562h20v-79.15625c.039062-3.210937-1.210938-6.300781-3.460938-8.589844-2.253906-2.285156-5.328124-3.578124-8.539062-3.589843-6.390625-.011719-12.515625-2.570313-17.015625-7.105469-4.503906-4.539062-7.015625-10.679688-6.984375-17.070312v-3.226563c-4.089844-1.050781-7.820312-3.1875-10.792969-6.1875-7.617187-7.640625-9.15625-19.445313-3.757812-28.789063 5.398437-9.34375 16.394531-13.898437 26.820312-11.117187 10.425781 2.785156 17.6875 12.214844 17.710938 23.007813 0 6.371093-2.476563 12.824218-6.984375 16.824218h-.066406c-3.046876 2.984375-6.8125 5.140625-10.929688 6.261719v3.226563c-.035156 3.207031 1.210938 6.300781 3.464844 8.585937 2.253906 2.289063 5.324218 3.582031 8.535156 3.589844 6.394531.015625 12.515625 2.574219 17.019531 7.109375 4.503907 4.535156 7.015625 10.679687 6.980469 17.070312v79.15625h11v-175.8125c-4.046875-1.050781-7.734375-3.191406-10.652344-6.1875-6.867187-6.824218-8.9375-17.113281-5.246094-26.0625 3.691407-8.949218 12.414063-14.785156 22.09375-14.785156 9.679688 0 18.402344 5.835938 22.09375 14.785156 3.691407 8.949219 1.621094 19.238282-5.242187 26.0625-3.066406 3.007813-6.878906 5.144532-11.046875 6.1875v175.8125h11v-79.15625c.167969-13.410156 11.089844-24.1875 24.5-24.179687 6.785156.019531 12.339844-5.394531 12.5-12.175781v-3.226563c-4.144531-1.117187-7.9375-3.273437-11.015625-6.261719h-.082031c-4.5-4-7.023438-10.453125-7.023438-16.824218.085938-10.734376 7.34375-20.085938 17.71875-22.839844 10.378906-2.75 21.316406 1.777344 26.710938 11.058594 5.398437 9.28125 3.921875 21.023437-3.605469 28.679687-2.9375 2.996094-6.636719 5.136719-10.703125 6.1875v3.226563c-.167969 13.40625-11.089844 24.1875-24.5 24.175781-6.785156-.015625-12.339844 5.394531-12.5 12.179687v79.15625h20v-14.101562c.136719-26.019532 11.050781-50.820313 30.144531-68.5zm0 0" fill="#ffffff" data-original="#000000" style="" class=""/><path xmlns="http://www.w3.org/2000/svg" d="m195.199219 388.878906h48.113281v-14h-98v14h15.65625c3.3125 0 6 2.6875 6 6s-2.6875 6-6 6h-15.65625v15h52.648438c3.3125 0 6 2.6875 6 6s-2.6875 6-6 6h-52.648438v1.84375c.011719 7.140625 5.710938 12.976563 12.851562 13.15625h72.296876c7.144531-.179687 12.84375-6.015625 12.851562-13.15625v-1.84375h-14.078125c-3.316406 0-6-2.6875-6-6s2.683594-6 6-6h14.078125v-15h-48.113281c-3.316407 0-6-2.6875-6-6s2.683593-6 6-6zm0 0" fill="#ffffff" data-original="#000000" style="" class=""/><path xmlns="http://www.w3.org/2000/svg" d="m194.3125 478.878906c3.316406 0 6-2.6875 6-6v-24h-12v24c0 3.3125 2.6875 6 6 6zm0 0" fill="#ffffff" data-original="#000000" style="" class=""/></g></svg>
