<?xml version="1.0"?>
<svg xmlns="http://www.w3.org/2000/svg" xmlns:xlink="http://www.w3.org/1999/xlink" xmlns:svgjs="http://svgjs.com/svgjs" version="1.1" width="512" height="512" x="0" y="0" viewBox="0 0 52 56" style="enable-background:new 0 0 512 512" xml:space="preserve" class=""><g><g xmlns="http://www.w3.org/2000/svg" id="Page-1" fill="none" fill-rule="evenodd"><g id="004---Genius" fill="rgb(0,0,0)" fill-rule="nonzero" transform="translate(-1 -1)"><path id="Shape" d="m27 57c1.895 0 3.533-.875 3.915-2h-7.83c.382 1.125 2.02 2 3.915 2z" fill="#ffffff" data-original="#000000" style="" class=""/><path id="Shape" d="m10.829 16.833c3.7783207 4.3357451 8.100732 8.165415 12.86 11.394 1.062.736 2.177 1.459 3.311 2.161 1.134-.7 2.249-1.425 3.311-2.16 4.7595776-3.2305106 9.081997-7.0622043 12.86-11.4-1.8411083-5.7920149-6.6398761-10.15668117-12.58-11.442-.9255847-.18784448-1.5908467-1.00154644-1.591-1.946v-.44c0-1.1045695-.8954305-2-2-2s-2 .8954305-2 2v.44c-.0001533.94445356-.6654153 1.75815552-1.591 1.946-5.9413499 1.28622394-10.7403946 5.6530495-12.58 11.447zm12.051-9.255c.3475904-.11061506.7278364-.02319312.9922165.22811941.26438.25131252.3709481.62664287.2780794.97938951-.0928687.35274665-.3704398.62694349-.7242959.71549108-3.5009277 1.0034917-6.4199833 3.4302333-8.046 6.689-.2471474.4940187-.8479813.6941474-1.342.447-.4940187-.2471475-.6941474-.8479813-.447-1.342 1.8777695-3.7606504 5.2478598-6.56041216 9.289-7.717z" fill="#ffffff" data-original="#000000" style="" class=""/><path id="Shape" d="m43.924 23.646c.1359386-1.4757163.0794655-2.9628433-.168-4.424-3.6809571 4.0098739-7.8103579 7.5836325-12.307 10.651-.817.565-1.667 1.121-2.528 1.67 2.7756358 1.625914 5.6961553 2.9907647 8.724 4.077.4551721-.5993549.9460625-1.1707246 1.47-1.711 2.7297636-2.7701978 4.4271482-6.3926261 4.809-10.263z" fill="#ffffff" data-original="#000000" style="" class=""/><path id="Shape" d="m19.969 45h14.062c.1809506-2.715939 1.0178692-5.34748 2.439-7.669-3.2921316-1.2371686-6.4623838-2.777101-9.47-4.6-3.0076328 1.8228687-6.1778821 3.3627997-9.47 4.6 1.4211308 2.32152 2.2580494 4.953061 2.439 7.669z" fill="#ffffff" data-original="#000000" style="" class=""/><path id="Shape" d="m22.551 29.872c-4.496459-3.0672233-8.6258393-6.6406287-12.307-10.65-.92059584 5.3582175.8086674 10.8306781 4.641 14.687.5239375.5402754 1.0148279 1.1116451 1.47 1.711 3.0278096-1.0863204 5.9483213-2.4511676 8.724-4.077-.861-.549-1.712-1.105-2.528-1.671z" fill="#ffffff" data-original="#000000" style="" class=""/><path id="Shape" d="m48.5 1c-1.5097059.00165907-2.9179847.76025191-3.75 2.02-3.1774483.0412503-6.3137017.72496715-9.22 2.01.7708382.38216192 1.512803.819988 2.22 1.31 2.0105166-.75853751 4.1246734-1.20699501 6.27-1.33-.01.16-.02.32-.02.49.0038754 2.11811546 1.4805831 3.94840105 3.55 4.4-.7129051 1.8291861-1.6899462 3.5440617-2.9 5.09.17.42.32.85.45 1.28.12.33.21.67.3 1.01 1.8841544-2.1837393 3.3304537-4.7096706 4.26-7.44 2.1680748-.59393272 3.5652778-2.69672351 3.2728045-4.92557163s-2.1848954-3.89996866-4.4328045-3.91442837zm0 7c-1.3807119 0-2.5-1.11928813-2.5-2.5s1.1192881-2.5 2.5-2.5 2.5 1.11928813 2.5 2.5-1.1192881 2.5-2.5 2.5z" fill="#ffffff" data-original="#000000" style="" class=""/><path id="Shape" d="m9.97 36.99c.02025911-.1625432.0302789-.3261994.03-.49-.00034305-2.1227522-1.48407701-3.9565807-3.56-4.4.6132532-1.5712627 1.42663157-3.0568546 2.42-4.42v-.01c-.26102065-.82429-.46155297-1.6665258-.6-2.52-1.73439466 2.0720348-3.06717676 4.4493382-3.93 7.01h-.01c-1.93391927.5216573-3.29022869 2.2587719-3.32728251 4.2614694-.03705382 2.0026974 1.25406929 3.7887947 3.16736822 4.3816331s3.98811484-.150318 5.08991429-1.8231025c.17279231.0168411.3464246.0235193.52.02 1.9760515-.0547889 3.9334524-.398429 5.81-1.02-.377469-.600147-.7986071-1.1716916-1.26-1.71-1.4142708.420595-2.8756347.6624759-4.35.72zm-4.47 2.01c-1.38071187 0-2.5-1.1192881-2.5-2.5s1.11928813-2.5 2.5-2.5 2.5 1.1192881 2.5 2.5-1.11928813 2.5-2.5 2.5z" fill="#ffffff" data-original="#000000" style="" class=""/><path id="Shape" d="m4.34 9.84c.92954627 2.7303294 2.37584563 5.2562607 4.26 7.44.19864816-.7792057.44920772-1.5442476.75-2.29-1.21005379-1.5459383-2.18709494-3.2608139-2.9-5.09 2.06941694-.45159895 3.54612464-2.28188454 3.55-4.4.0002789-.16380064-.00974089-.32745679-.03-.49 2.1484648.12381237 4.2657972.57222831 6.28 1.33.7058239-.492153 1.4479514-.93007512 2.22-1.31-2.9065988-1.28411192-6.0426618-1.96778726-9.22-2.01-1.1011454-1.67806957-3.18047871-2.42402686-5.09722911-1.82862229-1.91675039.59540458-3.20746295 2.38820696-3.16402263 4.39483388.04344033 2.00662693 1.41053002 3.74189206 3.35125174 4.25378841zm1.16-6.84c1.38071187 0 2.5 1.11928813 2.5 2.5s-1.11928813 2.5-2.5 2.5-2.5-1.11928813-2.5-2.5 1.11928813-2.5 2.5-2.5z" fill="#ffffff" data-original="#000000" style="" class=""/><path id="Shape" d="m49.68 32.16c-.871088-2.5590708-2.2067699-4.9354997-3.94-7.01-.138447.8534742-.3389793 1.69571-.6 2.52.9937055 1.3665236 1.8070771 2.8554642 2.42 4.43-2.075923.4434193-3.559657 2.2772478-3.56 4.4-.0002789.1638006.0097409.3274568.03.49-1.4743653-.0575241-2.9357292-.299405-4.35-.72-.4613929.5383084-.882531 1.109853-1.26 1.71 1.8765476.621571 3.8339485.9652111 5.81 1.02.1735754.0035193.3472077-.0031589.52-.02 1.1017995 1.6727845 3.1766154 2.4159409 5.0899143 1.8231025s3.204422-2.3789357 3.1673682-4.3816331c-.0370538-2.0026975-1.3933632-3.7398121-3.3272825-4.2614694zm-1.18 6.84c-1.3807119 0-2.5-1.1192881-2.5-2.5s1.1192881-2.5 2.5-2.5 2.5 1.1192881 2.5 2.5-1.1192881 2.5-2.5 2.5z" fill="#ffffff" data-original="#000000" style="" class=""/><path id="Shape" d="m36.5 48h-2.5v-1h-14v1h-2.5c-.5522847 0-1 .4477153-1 1s.4477153 1 1 1h2.5v2c0 .5522847.4477153 1 1 1h12c.5522847 0 1-.4477153 1-1v-2h2.5c.5522847 0 1-.4477153 1-1s-.4477153-1-1-1z" fill="#ffffff" data-original="#000000" style="" class=""/></g></g></g></svg>
