<?xml version="1.0"?>
<svg xmlns="http://www.w3.org/2000/svg" xmlns:xlink="http://www.w3.org/1999/xlink" xmlns:svgjs="http://svgjs.com/svgjs" version="1.1" width="512" height="512" x="0" y="0" viewBox="0 0 512 512" style="enable-background:new 0 0 512 512" xml:space="preserve" class=""><g><g xmlns="http://www.w3.org/2000/svg"><g><g clip-rule="evenodd" fill-rule="evenodd"><path d="m7.5 388.682h203.5v-30h-143.5c0-16.569-13.431-30-30-30v-224.999c16.569 0 30-13.431 30-30h377c0 16.569 13.431 30 30 30v224.999c-16.569 0-30 13.431-30 30h-143.5v30h203.5v-345h-497z" fill="#f3c939" data-original="#faef93" style="" class=""/><path d="m181 268.683c0 41.735 33.897 75 75 75s75-33.265 75-75c0-41.421-33.579-75-75-75s-75 33.579-75 75zm75 45c-24.862 0-45-20.138-45-45s20.138-45 45-45 45 20.138 45 45-20.138 45-45 45z" fill="#f3c939" data-original="#faef93" style="" class=""/><circle cx="256" cy="268.683" fill="#e08ea2" r="45" data-original="#e08ea2" style="" class=""/><path d="m211 463.682 30-15v-106.501c-11.083-2.249-21.279-6.943-30-13.495zm90 0-30-15v-106.501c11.083-2.249 21.279-6.943 30-13.495z" fill="#e08ea2" data-original="#e08ea2" style="" class=""/><path d="m241 448.682 15-7.5 15.001 7.5v-106.5c-9.859 2.001-20.143 2.002-30.001-.001z" fill="#f3c939" data-original="#faef93" style="" class=""/><path d="m67.5 358.682h143.5l-.001-29.995c-18.216-13.683-29.999-35.467-29.999-60.004 0-41.421 33.579-75 75-75s75 33.579 75 75c0 24.537-11.783 46.322-30 60.003v29.996h143.5c0-16.569 13.431-30 30-30v-224.999c-16.569 0-30-13.431-30-30h-377c0 16.569-13.431 30-30 30v224.999c16.569 0 30 13.432 30 30z" fill="#e5ecf5" data-original="#e5ecf5" style="" class=""/><path d="m7.5 43.683h15v345h-15z" fill="#ffdf71" data-original="#f8e868" style="" class=""/><path d="m181 268.683c0 44.465 38.425 79.024 82.5 74.626-89.108-8.886-89.048-140.413 0-149.254-44.093-4.382-82.5 30.145-82.5 74.628z" fill="#ffdf71" data-original="#f8e868" style="" class=""/><path d="m211 268.683c0 27.975 25.138 48.961 52.5 44.375-49.579-8.311-49.579-80.44 0-88.751-27.362-4.585-52.5 16.401-52.5 44.376z" fill="#c21d44" data-original="#c21d44" style="" class=""/><path d="m211 463.682 15-7.5v-118.741c-5.355-2.34-10.384-5.287-15-8.755z" fill="#c21d44" data-original="#c21d44" style="" class=""/><path d="m67.5 358.682h22.5c0-16.569-13.431-37.5-30-37.5v-210c16.569 0 30-20.931 30-37.5h-22.5c0 16.569-13.431 30-30 30v224.999c16.569.001 30 13.433 30 30.001z" fill="#b0c5e0" data-original="#b0c5e0" style="" class=""/></g><g><path d="m271 268.683h-15v-15h15zm181-67.501h-15v-45h15zm0-60h-15v-15h15z" fill="#ffffff" data-original="#ffffff" style="" class=""/></g></g><g><path d="m0 36.183v74.999h15v-59.999h482v329.999h-60v15h75v-359.999z" fill="#000000" data-original="#000000" style="" class=""/><path d="m256 321.183c28.949 0 52.5-23.551 52.5-52.5s-23.551-52.5-52.5-52.5-52.5 23.551-52.5 52.5 23.551 52.5 52.5 52.5zm0-90c20.678 0 37.5 16.822 37.5 37.5s-16.822 37.5-37.5 37.5-37.5-16.822-37.5-37.5 16.822-37.5 37.5-37.5z" fill="#000000" data-original="#000000" style="" class=""/><path d="m308.5 366.182h143.5v-7.5c0-12.407 10.094-22.5 22.5-22.5h7.5v-239.999h-7.5c-12.407 0-22.5-10.094-22.5-22.5v-7.5h-392v7.5c0 12.407-10.094 22.5-22.5 22.5h-7.5v239.999h7.5c12.407 0 22.5 10.094 22.5 22.5v7.5h143.5v15h-188.5v-255.001h-15v270.001h203.5v79.635l52.5-26.25 52.5 26.249v-79.634h113.501v-15h-113.501zm-234.253-15c-2.991-14.671-14.576-26.256-29.247-29.247v-211.506c14.671-2.991 26.256-14.576 29.247-29.247h363.506c2.991 14.671 14.576 26.256 29.247 29.247v211.506c-14.671 2.991-26.256 14.576-29.247 29.247h-129.253v-18.908c18.312-15.144 30-38.028 30-63.592 0-45.491-37.009-82.5-82.5-82.5-18.996 0-37.542 6.617-52.221 18.632l9.501 11.607c12.006-9.828 27.178-15.24 42.72-15.24 37.22 0 67.5 30.28 67.5 67.5s-30.28 67.5-67.5 67.5-67.5-30.28-67.5-67.5c0-15.543 5.412-30.715 15.24-42.72l-11.606-9.502c-12.016 14.678-18.633 33.224-18.633 52.222 0 25.564 11.688 48.448 30 63.592v18.908h-129.254zm144.253-9.052c4.753 2.437 9.77 4.423 15 5.908v96.009l-15 7.5zm60 101.917v-32.866h-15v25.366l-7.501-3.75-7.5 3.75v-85.721c2.472.224 4.971.356 7.5.356s5.028-.132 7.5-.356v15.356h15v-18.144c5.229-1.485 10.246-3.471 15-5.908v109.417z" fill="#000000" data-original="#000000" style="" class=""/><path d="m218.5 111.182h75v15h-75z" fill="#000000" data-original="#000000" style="" class=""/><path d="m390.999 141.181h15.001v15h-15.001z" fill="#000000" data-original="#000000" style="" class=""/><path d="m106 141.181h269.999v15h-269.999z" fill="#000000" data-original="#000000" style="" class=""/><path d="m263.5 381.181h15v15h-15z" fill="#000000" data-original="#000000" style="" class=""/><path d="m30 66.182h15v15h-15z" fill="#000000" data-original="#000000" style="" class=""/><path d="m467 351.182h15v15h-15z" fill="#000000" data-original="#000000" style="" class=""/><path d="m467 66.182h15v15h-15z" fill="#000000" data-original="#000000" style="" class=""/><path d="m30 351.183h15v15h-15z" fill="#000000" data-original="#000000" style="" class=""/></g></g></g></svg>
