<?xml version="1.0" encoding="UTF-8"?>
<svg width="466px" height="244px" viewBox="0 0 466 244" version="1.1" xmlns="http://www.w3.org/2000/svg" xmlns:xlink="http://www.w3.org/1999/xlink">
    <!-- Generator: sketchtool 56.2 (101010) - https://sketch.com -->
    <title>5C26F243-40F4-4CE0-80D6-35A5AAD706F4</title>
    <desc>Created with sketchtool.</desc>
    <defs>
        <linearGradient x1="21.3190565%" y1="36.7574169%" x2="39.6384426%" y2="56.5452015%" id="linearGradient-1">
            <stop stop-color="#66A3FF" offset="0%"></stop>
            <stop stop-color="#FFFFFF" stop-opacity="0" offset="100%"></stop>
        </linearGradient>
        <linearGradient x1="9.27279562%" y1="43.9230702%" x2="42.9896266%" y2="37.1871554%" id="linearGradient-2">
            <stop stop-color="#D2E4FE" offset="0%"></stop>
            <stop stop-color="#FFFFFF" offset="100%"></stop>
        </linearGradient>
        <linearGradient x1="56.8798036%" y1="5.76214501%" x2="16.4800389%" y2="66.6976797%" id="linearGradient-3">
            <stop stop-color="#D2E4FE" stop-opacity="0.818181818" offset="0%"></stop>
            <stop stop-color="#FFFFFF" offset="100%"></stop>
        </linearGradient>
        <linearGradient x1="-14.3402957%" y1="57.1470722%" x2="168.420684%" y2="42.1750214%" id="linearGradient-4">
            <stop stop-color="#FFB14B" offset="0%"></stop>
            <stop stop-color="#FFB14B" stop-opacity="0.444055944" offset="100%"></stop>
        </linearGradient>
        <linearGradient x1="0%" y1="33.3226369%" x2="111.508598%" y2="71.7347266%" id="linearGradient-5">
            <stop stop-color="#FFB14B" offset="0%"></stop>
            <stop stop-color="#FFE6C5" offset="100%"></stop>
        </linearGradient>
    </defs>
    <g id="UI-(Desktop)" stroke="none" stroke-width="1" fill="none" fill-rule="evenodd">
        <g id="Platform-/-Certifications" transform="translate(-841.000000, -215.000000)" fill-rule="nonzero">
            <g id="Header-text-+-image" transform="translate(135.000000, 163.000000)">
                <g id="Certification-image" transform="translate(706.000000, 52.000000)">
                    <polygon id="Path" fill="url(#linearGradient-1)" points="33.408 166.152 181.368 80.688 14.568 88.536 4.224 98.448 1.968 113.328 3.624 123.432 8.568 135.696 13.512 145.296 19.08 152.52"></polygon>
                    <path d="M157.824,2.76 C158.071785,2.60185953 158.328182,2.45763637 158.592,2.328 L158.592,2.328 L158.592,2.328 C164.496,-0.816 172.536,-0.24 181.368,4.728 L383.424,121.488 C382.53536,122.194156 381.730156,122.99936 381.024,123.888 L373.368,119.448 L332.568,208.248 L311.376,237.048 L297.576,241.848 L283.728,236.424 L216.528,198.216 L83.28,122.112 L34.392,92.76 L21.624,88.704 L10.152,88.008 L157.824,2.76 Z" id="Path" fill="#D4ECFF"></path>
                    <path d="M317.496,219.96 C317.496,199.032 302.76,173.52 284.64,163.056 L284.64,166.656 C301.032,176.112 314.376,199.224 314.376,218.16 C314.376,237.096 301.032,244.8 284.64,235.32 L33.408,90.288 C24.36,85.056 16.128,84.552 10.176,87.888 L157.824,2.76 C158.071785,2.60185953 158.328182,2.45763637 158.592,2.328 L158.592,2.328 L158.592,2.328 C164.496,-0.816 172.536,-0.24 181.368,4.728 L383.424,121.488 C382.53536,122.194156 381.730156,122.99936 381.024,123.888 L373.368,119.448 L332.568,208.248 L315.648,231.336 C316.914603,227.678738 317.539798,223.830133 317.496,219.96 L317.496,219.96 Z" id="Path" fill="url(#linearGradient-2)"></path>
                    <polygon id="Path" fill="#D4ECFF" points="10.152 88.008 10.152 88.008 10.176 88.008"></polygon>
                    <path d="M317.496,217.968 C317.496,218.328 317.496,218.664 317.496,219.024 C316.891989,207.660071 313.451299,196.628408 307.488,186.936 L308.328,186.384 C313.973398,195.981281 317.125287,206.839618 317.496,217.968 Z" id="Path" fill="#FFFFFF"></path>
                    <path d="M33.408,88.272 L284.64,233.328 C300.648,242.568 313.752,235.44 314.352,217.488 C314.352,217.704 314.352,217.944 314.352,218.16 C314.352,237.096 301.008,244.8 284.616,235.32 L33.408,90.288 C24.36,85.056 16.128,84.552 10.176,87.888 L17.376,83.76 C23.0488464,83.6436211 28.6285535,85.2139578 33.408,88.272 Z" id="Path" fill="#CEE4FF"></path>
                    <path d="M332.616,206.232 L373.416,117.432 L381.072,121.848 C381.384,121.488 381.696,121.152 382.032,120.816 L383.4,121.584 C382.51136,122.290156 381.706156,123.09536 381,123.984 L373.344,119.544 L332.544,208.344 L315.624,231.432 C315.999187,230.363121 316.311718,229.273271 316.56,228.168 L332.616,206.232 Z" id="Path" fill="#FFFFFF"></path>
                    <polygon id="Path" fill="#D4ECFF" points="10.152 86.016 10.152 86.016 10.176 85.992"></polygon>
                    <path d="M432.624,77.592 L432.624,77.592 C450.744,88.032 465.48,113.592 465.48,134.496 C465.48,144.6 462.024,151.8 456.432,155.376 L456.432,155.376 L456.432,155.376 L455.424,155.976 L307.992,241.152 L317.016,224.832 L315.96,208.56 L313.008,199.392 L308.664,189.792 C308.664,189.792 305.064,183.12 304.824,182.976 C304.584,182.832 299.424,176.088 299.424,176.088 L294.624,170.904 L289.224,167.448 L284.736,163.056 L432.624,77.592 Z" id="Path" fill="url(#linearGradient-3)"></path>
                    <path d="M33.408,166.152 L33.408,162.552 C17.016,153.096 3.672,129.984 3.672,111.048 C3.672,92.112 17.016,84.408 33.408,93.792 L284.64,238.848 C302.76,249.288 317.496,240.792 317.496,219.864 C317.496,198.936 302.76,173.424 284.64,162.96 L284.64,166.56 C301.032,176.016 314.376,199.128 314.376,218.064 C314.376,237 301.032,244.704 284.64,235.224 L33.408,90.288 C15.288,79.824 0.552,88.32 0.552,109.248 C0.552,130.176 15.288,155.712 33.408,166.152 Z" id="Path" fill="#CEE4FF"></path>
                    <polygon id="Path" fill-opacity="0.267782998" fill="#005EEC" opacity="0.915341332" points="245.832 154.272 133.56 89.976 129.288 92.448 241.536 156.744"></polygon>
                    <polygon id="Path" fill-opacity="0.267782998" fill="#005EEC" opacity="0.915341332" points="243.744 131.496 152.256 79.104 147.96 81.576 239.448 133.992"></polygon>
                    <polygon id="Path" fill-opacity="0.267782998" fill="#005EEC" opacity="0.915341332" points="227.928 133.224 142.896 84.528 138.624 87.024 223.632 135.696"></polygon>
                    <polygon id="Path" fill-opacity="0.267782998" fill="#005EEC" opacity="0.915341332" points="208.848 95.568 164.928 70.416 160.464 72.816 205.584 98.64"></polygon>
                    <polygon id="Path" fill-opacity="0.267782998" fill="#005EEC" opacity="0.915341332" points="255.168 148.824 234.384 136.92 230.112 139.416 250.872 151.32"></polygon>
                    <polygon id="Path" fill-opacity="0.267782998" fill="#005EEC" opacity="0.915341332" points="230.832 167.256 209.88 155.232 205.584 157.728 226.536 169.728"></polygon>
                    <path d="M342.912,61.992 L342.912,49.296 L339.24,49.296 C335.169665,42.775828 329.459465,37.4380328 322.68,33.816 C295.704,18.24 251.976,18.24 225.024,33.816 C218.233099,37.4309302 212.513452,42.7698189 208.44,49.296 L204.792,49.296 L204.792,61.896 L204.792,61.896 C204.792,72.12 211.488,82.368 225.024,90.192 C251.976,105.768 295.704,105.768 322.68,90.192 C336.168,82.416 342.912,72.192 342.912,61.992 Z" id="Path" fill="url(#linearGradient-4)"></path>
                    <path d="M322.68,77.496 C295.704,93.072 251.976,93.072 225.024,77.496 C198.072,61.92 198.048,36.696 225.024,21.096 C252,5.496 295.704,5.544 322.68,21.096 C349.656,36.648 349.656,61.92 322.68,77.496 Z" id="Path" fill="url(#linearGradient-5)"></path>
                    <path d="M322.68,77.496 C295.704,93.072 251.976,93.072 225.024,77.496 C212.088,70.032 205.44,60.336 204.888,50.568 C204.312,61.2 210.96,71.928 225.024,80.04 C251.976,95.592 295.704,95.592 322.68,80.04 C336.72,71.928 343.392,61.2 342.792,50.568 C342.264,60.336 335.616,70.032 322.68,77.496 Z" id="Path" fill="#FFFFFF"></path>
                    <g id="Badge" transform="translate(231.000000, 24.000000)" fill="#FFFFFF">
                        <path d="M52.4349,48.8691 C52.29,49.5243 51.4836,50.0976 50.4315,50.3559 C49.437741,50.6350811 48.3763606,50.5432739 47.4453,50.0976 L42.3297,47.1681 C42.1298897,47.0755833 41.8995103,47.0755833 41.6997,47.1681 L34.9713,49.9401 C33.9721035,50.3551638 32.8617825,50.4195624 31.8213,50.1228 L31.6134,50.0472 C30.8259,49.7322 30.4479,49.1841 30.6369,48.5541 L33.6483,38.2347 L30.0762,35.0091 C29.770077,34.7511708 29.3959999,34.5871019 28.9989,34.5366 L26.271,34.0767 L8.379,39.2427 C7.45904344,39.5357334 6.46732953,39.5113288 5.5629,39.1734 L5.3802,39.0852 C5.03895305,38.9600561 4.77562534,38.6828754 4.66812632,38.3356659 C4.56062729,37.9884564 4.62126542,37.6109731 4.8321,37.3149 L7.7427,32.7159 C7.8309,32.5773 7.7553,32.4324 7.56,32.3757 L1.26,30.4857 C0.3213,30.2022 -0.1386,29.5911 0.0378,28.8981 C0.2142,28.2051 0.9954,27.5751 2.0727,27.2601 L19.4733,22.2705 L16.821,17.9991 C16.0587,16.7454 16.9533,15.183 18.9315,14.301 L27.1215,10.6533 C27.4946836,10.5020425 27.819323,10.2514814 28.0602,9.9288 L31.9851,4.2273 C32.9238,2.8665 35.1351,2.0223 37.2393,2.2365 L45.99,3.1122 C46.4441421,3.1551968 46.9023048,3.10809596 47.3382,2.9736 L55.7676,0.3087 C57.7773,-0.3213 60.0201,0.0441 61.11,1.1781 L65.7216,5.8842 C66.0041842,6.14626426 66.3563603,6.32125857 66.7359,6.3882 L75.0519,8.1522 C77.0553,8.5743 78.1578,9.8595 77.6853,11.2077 L75.7197,16.8147 C75.6175241,17.094112 75.6676058,17.4065268 75.852,17.64 L79.5564,22.5855 C80.4384,23.7699 79.8084,25.2252 77.9184,26.0505 L70.1127,29.5029 C69.7576606,29.6404214 69.4524337,29.8819678 69.237,30.1959 L65.835,35.6328 C65.0097,36.9369 62.7858,37.7811 60.543,37.6425 L55.44,37.3212 L54.6903,40.1247 C54.6021,40.509 53.9721,40.7925 53.3421,40.7925 C53.1459442,40.7934029 52.9514001,40.7570595 52.7688,40.6854 C52.4601,40.5405 52.29,40.3074 52.353,40.0554 L53.1216,37.1763 L51.1875,37.0566 C50.707743,37.0286274 50.2269848,37.0905918 49.77,37.2393 L40.8807,40.0995 C39.3061771,40.6396139 37.5941433,40.6240499 36.0297,40.0554 C35.8610136,39.9836608 35.6969032,39.9016056 35.5383,39.8097 L33.0183,48.5478 C32.9742,48.7179 33.1254,48.825 33.2199,48.825 C33.3931889,48.8859978 33.5821111,48.8859978 33.7554,48.825 L40.4901,46.053 C41.6471514,45.5599267 42.9590047,45.5805317 44.1,46.1097 L49.203,49.0392 C49.3608622,49.1198082 49.5439492,49.1356306 49.7133,49.0833 C49.8267,49.0581 50.022,48.9888 50.0661,48.825 L51.5529,43.155 C51.6474,42.7707 52.2585,42.4683 52.9074,42.4809 C53.5563,42.4935 54.0036,42.8148 53.9028,43.1991 L52.4349,48.8691 Z M32.13,34.1082 L37.1196,38.5938 C37.9696928,39.1578054 39.0402896,39.2751954 39.9924,38.9088 L48.8691,36.036 C49.7903419,35.742673 50.7580603,35.6230433 51.723,35.6832 L54.3501,35.847 C54.4548822,35.8374347 54.5603178,35.8374347 54.6651,35.847 C54.8102026,35.847072 54.9545199,35.8682951 55.0935,35.91 L61.0155,36.2754 C62.1243,36.351 63.2205,35.91 63.63,35.28 L67.0824,29.8179 C67.5217275,29.18336 68.1402768,28.6942235 68.859,28.413 L76.6647,24.948 C77.5845,24.5385 77.931,23.8203 77.4837,23.2281 L73.7919,18.2511 C73.422083,17.7772991 73.3221126,17.1465336 73.5273,16.5816 L75.5244,10.962 C75.7638,10.2942 75.2094,9.6579 74.2203,9.45 L65.8854,7.6986 C65.1199554,7.56713968 64.4088779,7.21707075 63.8379,6.6906 L59.22,2.016 C58.4709563,1.41525401 57.4612354,1.25255016 56.5614,1.5876 L48.1257,4.2525 C47.2492334,4.53040739 46.3257771,4.62896653 45.4104,4.5423 L36.666,3.6918 C35.6869029,3.55733253 34.7066219,3.92998175 34.0641,4.6809 L30.1707,10.3509 C29.685564,11.0011304 29.0320514,11.5065136 28.2807,11.8125 L20.0907,15.4602 C19.1079,15.8949 18.6732,16.6572 19.0512,17.2872 L22.302,22.491 C22.641388,23.0122988 22.6889804,23.6714533 22.428,24.2361 L22.0059,25.2189 C21.6818202,25.6835948 21.1243264,25.9270418 20.5632,25.8489 C19.9395,25.8048 19.5741,25.4457 19.7442,25.0488 L20.1726,24.0597 C20.2431697,23.9017026 20.2693078,23.727449 20.2482,23.5557 L2.772,28.5957 C2.5137,28.6713 2.4444,28.7973 2.4255,28.8729 C2.4066,28.9485 2.4129,29.0745 2.6334,29.1438 L8.9334,31.0338 C10.0611,31.3677 10.5084,32.2056 9.9918,33.0246 L7.1064,37.6173 C7.06875873,37.6675228 7.05754798,37.7327757 7.07626861,37.7926817 C7.09498924,37.8525877 7.14135986,37.8998464 7.2009,37.9197 C7.36468515,37.9852486 7.54741485,37.9852486 7.7112,37.9197 L23.0391,33.5097 L20.2104,33.0309 C18.0873,32.6655 16.9785,31.374 17.6085,29.9565 L18.2763,28.3941 C18.6052404,27.9318169 19.1628745,27.6893673 19.7253,27.7641 C20.3553,27.8019 20.727,28.161 20.5506,28.5642 L19.8891,30.1203 C19.5615,30.8196 20.1033,31.4622 21.1491,31.6386 L29.9691,33.1569 C30.765801,33.2599339 31.5159853,33.5901899 32.13,34.1082 Z M68.3802,14.2065 C71.2656,18.5787 69.9741,23.7573 64.9026,27.7767 C57.1599,33.8688 43.0668,35.6202 33.7365,31.5567 C24.5133,27.4176 23.8833,18.8118 32.0733,12.5118 C40.1058,6.3 53.55,4.8321 62.37,9.1854 C63.6330216,9.79660438 64.8175993,10.5581187 65.898,11.4534 C66.2634,11.7495 66.1374,12.1905 65.6334,12.4425 C65.1362859,12.6972752 64.5411936,12.6684804 64.071,12.3669 C63.0950801,11.5632624 62.024532,10.8820045 60.8832,10.3383 C53.0082,6.4575 40.95,7.7616 33.7806,13.3434 C26.4915,18.9693 27.1215,26.649 35.3115,30.3534 C43.6212,34.0074 56.2212,32.4513 63.1512,26.9955 C67.6935,23.3919 68.8716,18.7488 66.3012,14.8302 C66.0681,14.4837 66.3579,14.0616 66.9312,13.8852 C67.4351159,13.6945954 68.0040827,13.8207576 68.3802,14.2065 Z" id="Combined-Shape"></path>
                    </g>
                </g>
            </g>
        </g>
    </g>
</svg>