<svg id="Capa_1" enable-background="new 0 0 511.996 511.996" height="512" viewBox="0 0 511.996 511.996" width="512" xmlns="http://www.w3.org/2000/svg" xmlns:xlink="http://www.w3.org/1999/xlink"><linearGradient id="SVGID_1_" gradientUnits="userSpaceOnUse" x1="68.024" x2="507.549" y1="443.925" y2="4.4"><stop offset="0" stop-color="#5558ff"/><stop offset="1" stop-color="#00c0ff"/></linearGradient><g><g><path d="m496.893 0c-1.482.005-3.052.266-4.244.626l-296.803 84.801c-4.205 1.201-7.675 4.177-9.504 8.149l-71.306 154.846-110.616 110.693c-5.854 5.858-5.853 15.353.004 21.209l127.279 127.279c5.855 5.856 15.36 5.857 21.217-.003l110.612-110.689 154.841-71.304c3.972-1.829 6.947-5.3 8.148-9.504l84.799-296.798c2.929-9.735-4.502-19.353-14.427-19.305zm-354.587 475.781-106.066-106.067 91.305-91.368 106.065 106.066zm257.262-174.542-141.532 65.174-112.5-112.5 65.174-141.532 234.702-67.058-119.99 119.991c-16.724-7.967-37.383-5.044-51.209 8.782-17.544 17.545-17.544 46.094 0 63.64 17.544 17.545 46.094 17.546 63.64 0 13.828-13.827 16.749-34.485 8.782-51.209l119.991-119.991zm-82.928-84.716c-5.849 5.848-15.365 5.849-21.214 0-5.848-5.849-5.848-15.365 0-21.213s15.365-5.849 21.214 0c5.848 5.848 5.848 15.364 0 21.213z" fill="url(#SVGID_1_)"/></g></g></svg>