<svg enable-background="new 0 0 32 32" height="512" viewBox="0 0 32 32" width="512" xmlns="http://www.w3.org/2000/svg"><g id="BG"><path d="m26 32h-20c-3.314 0-6-2.686-6-6v-20c0-3.314 2.686-6 6-6h20c3.314 0 6 2.686 6 6v20c0 3.314-2.686 6-6 6z" fill="#ffe6e2"/></g><g id="bold"><path d="m20.167 8h-8.333c-.643 0-1.167.523-1.167 1.167v13.667c0 .643.523 1.167 1.167 1.167h8.333c.643 0 1.167-.523 1.167-1.167v-13.667c-.001-.644-.524-1.167-1.167-1.167zm-.167 14.333h-8v-12.666h8z" fill="#fc573b"/><g fill="#fd907e"><path d="m16.833 11.5h-1.667c-.276 0-.5-.224-.5-.5s.224-.5.5-.5h1.667c.276 0 .5.224.5.5s-.224.5-.5.5z"/><path d="m14.667 21.5h-1.333c-.276 0-.5-.224-.5-.5s.224-.5.5-.5h1.333c.276 0 .5.224.5.5s-.224.5-.5.5z"/><path d="m18.667 21.5h-1.333c-.276 0-.5-.224-.5-.5s.224-.5.5-.5h1.333c.276 0 .5.224.5.5s-.224.5-.5.5z"/></g></g></svg>