<?xml version="1.0" encoding="UTF-8"?>
<svg width="449px" height="274px" viewBox="0 0 449 274" version="1.1" xmlns="http://www.w3.org/2000/svg" xmlns:xlink="http://www.w3.org/1999/xlink">
    <!-- Generator: Sketch 50.2 (55047) - http://www.bohemiancoding.com/sketch -->
    <title>Group</title>
    <desc>Created with Sketch.</desc>
    <defs>
        <polygon id="path-1" points="1.30491541 0.83571319 66.1770677 0.83571319 66.1770677 34.5793098 1.30491541 34.5793098"></polygon>
        <polygon id="path-3" points="1.30567669 0.265046012 66.1770677 0.265046012 66.1770677 26.7004755 1.30567669 26.7004755"></polygon>
        <polygon id="path-5" points="1.30491541 0.264371166 66.1770677 0.264371166 66.1770677 34.0083896 1.30491541 34.0083896"></polygon>
        <polygon id="path-7" points="0 1.68585123 64.8716447 1.68585123 64.8716447 35.4294479 0 35.4294479"></polygon>
        <polygon id="path-9" points="0 0.544263804 64.872406 0.544263804 64.872406 26.9796933 0 26.9796933"></polygon>
        <polygon id="path-11" points="0 0.54333589 64.8716447 0.54333589 64.8716447 34.2869325 0 34.2869325"></polygon>
        <polyline id="path-13" points="1.56654135 20.1677914 31.1785714 1.23665644 86.9244361 30.177454 57.312406 49.108589"></polyline>
        <polygon id="path-15" points="0.828947368 10.6254601 18.9304511 1.3345092 36.9795113 10.7047546 18.8780075 19.9957055"></polygon>
        <polyline id="path-17" points="0.561654135 11.651227 22.7199248 0.276687117 40.768985 9.64693252 18.6107143 21.0197853"></polyline>
        <polyline id="path-19" points="0.109962406 11.3880368 22.2665414 0.0151840491 40.3156015 9.38374233 18.1573308 20.7582822"></polyline>
        <polyline id="path-21" points="0.0456766917 11.5854294 22.1921053 0.217638037 40.2394737 9.58788344 18.0947368 20.9556748"></polyline>
        <polygon id="path-23" points="1.20789474 12.9941718 23.3661654 1.6196319 41.4152256 10.9898773 19.2569549 22.3627301"></polygon>
        <polygon id="path-25" points="1.20789474 12.9941718 23.3661654 1.6196319 41.4152256 10.9898773 19.2569549 22.3627301"></polygon>
        <polygon id="path-27" points="1.20789474 12.9941718 23.3661654 1.6196319 41.4152256 10.9898773 19.2569549 22.3627301"></polygon>
        <polyline id="path-29" points="0.438157895 8.98220859 17.4840226 0.232822086 38.5409774 11.1636503 21.4934211 19.9147239"></polyline>
        <polyline id="path-31" points="0.693609023 11.0269939 20.4140977 0.904294479 38.3193609 10.2003067 18.5988722 20.321319"></polyline>
        <polyline id="path-33" points="0.693609023 11.0269939 20.4140977 0.904294479 38.3193609 10.2003067 18.5988722 20.321319"></polyline>
        <polyline id="path-35" points="0.693609023 11.0269939 20.4140977 0.904294479 38.3193609 10.2003067 18.5988722 20.321319"></polyline>
        <polyline id="path-37" points="0.693609023 11.0269939 20.4140977 0.904294479 38.3193609 10.2003067 18.5988722 20.321319"></polyline>
        <polyline id="path-39" points="0.27575188 15.8639571 29.8201128 0.698466258 53.874812 13.1865031 24.3304511 28.3519939"></polyline>
    </defs>
    <g id="Redesign" stroke="none" stroke-width="1" fill="none" fill-rule="evenodd">
        <g id="About" transform="translate(-698.000000, -909.000000)">
            <g id="Intro" transform="translate(114.000000, 846.000000)">
                <g id="Group" transform="translate(584.000000, 63.000000)">
                    <path d="M177.311673,69.7616293 L136.923327,89.9007397 C131.523327,92.5933777 125.1675,92.5933777 119.765808,89.9007397 L79.3774624,69.7616293 C75.8434398,68.0002796 75.8434398,62.969298 79.3774624,61.2062612 L119.765808,41.0671507 C125.1675,38.3745127 131.523327,38.3745127 136.923327,41.0671507 L177.311673,61.2062612 C180.847387,62.969298 180.847387,68.0002796 177.311673,69.7616293" id="Fill-1" fill="#C9D9F0"></path>
                    <path d="M205.07312,103.742856 L128.344737,65.4841139" id="Stroke-3" stroke="#88ADEE" stroke-width="4.79605263" stroke-linecap="round" stroke-linejoin="round"></path>
                    <path d="M301.994154,79.3265679 L280.786635,89.9014146 C275.386635,92.5940526 269.030808,92.5940526 263.630808,89.9014146 L242.423289,79.3265679 C238.889267,77.5635311 238.889267,72.5342366 242.423289,70.7711998 L263.630808,60.1963532 C269.030808,57.5037152 275.386635,57.5037152 280.786635,60.1963532 L301.994154,70.7711998 C305.528177,72.5342366 305.528177,77.5635311 301.994154,79.3265679" id="Fill-4" fill="#C9D9F0"></path>
                    <path d="M176.298835,122.872734 L267.411992,77.4403716" id="Stroke-6" stroke="#88ADEE" stroke-width="4.79605263" stroke-linecap="round" stroke-linejoin="round"></path>
                    <g id="Group-131" transform="translate(0.000000, 0.337964)">
                        <path d="M277.279004,71.7788804 C274.458891,70.1558742 269.914906,70.1558742 267.104944,71.7721319 C264.315282,73.4018865 264.318665,76.0321012 267.138778,77.6551074 C269.957199,79.2781135 274.511335,79.2730521 277.312838,77.6483589 L275.616034,76.6732055 L273.909079,75.6896166 C272.975244,76.231181 271.459455,76.2379294 270.518853,75.696365 C269.578252,75.1548006 269.583327,74.2791871 270.507011,73.7308742 C271.452688,73.1960583 272.958327,73.1960583 273.898929,73.7376227 C274.83953,74.2791871 274.844605,75.1497393 273.909079,75.6896166 L275.616034,76.6732055 L277.312838,77.6483589 C280.11265,76.0270399 280.097425,73.4018865 277.279004,71.7788804" id="Fill-7" fill="#88ADEE"></path>
                        <path d="M239.773534,46.0166104 L239.773534,55.5808742 C239.773534,57.2798006 240.654925,58.978727 242.422782,59.8594018 L263.631992,70.4342485 C266.330301,71.7805675 269.270526,72.4520399 272.20906,72.4520399 C275.147594,72.4520399 278.086128,71.7805675 280.786128,70.4342485 L301.993647,59.8594018 C303.761504,58.9770399 304.646278,57.2798006 304.646278,55.5808742 L304.646278,46.0166104 L239.773534,46.0166104 Z" id="Fill-9" fill="#3976E2"></path>
                        <path d="M301.994154,50.2944632 L280.786635,60.8693098 C275.386635,63.5619479 269.030808,63.5619479 263.630808,60.8693098 L242.423289,50.2944632 C238.889267,48.5314264 238.889267,43.5021319 242.423289,41.7390951 L263.630808,31.1642485 C269.030808,28.4716104 275.386635,28.4716104 280.786635,31.1642485 L301.994154,41.7390951 C305.528177,43.5021319 305.528177,48.5314264 301.994154,50.2944632" id="Fill-11" fill="#88ADEE"></path>
                        <path d="M292.403741,155.506089 L232.832876,185.209463 C227.432876,187.903788 221.077049,187.903788 215.677049,185.209463 L156.106184,155.506089 C152.57047,153.744739 152.57047,148.713758 156.106184,146.952408 L215.677049,117.247347 C221.077049,114.554709 227.432876,114.554709 232.832876,117.247347 L292.403741,146.952408 C295.937763,148.713758 295.937763,153.744739 292.403741,155.506089" id="Fill-13" fill="#C9D9F0"></path>
                        <path d="M397.903872,136.376887 L376.696353,146.951733 C371.294662,149.644371 364.940526,149.644371 359.538835,146.951733 L338.333008,136.376887 C334.797293,134.615537 334.797293,129.584555 338.333008,127.821518 L359.538835,117.248359 C364.940526,114.554034 371.294662,114.554034 376.696353,117.248359 L397.903872,127.821518 C401.437895,129.584555 401.437895,134.615537 397.903872,136.376887" id="Fill-15" fill="#C9D9F0"></path>
                        <polyline id="Stroke-17" stroke="#88ADEE" stroke-width="4.79605263" stroke-linecap="round" stroke-linejoin="round" points="363.322556 134.490521 291.390226 170.35862 253.02688 151.228405"></polyline>
                        <path d="M409.916165,229.46 L291.390226,170.35862" id="Stroke-19" stroke="#88ADEE" stroke-width="4.79605263" stroke-linecap="round" stroke-linejoin="round"></path>
                        <path d="M373.188722,129.15316 C370.370301,127.530153 365.816165,127.536902 363.014662,129.158221 C360.21485,130.782914 360.230075,133.40638 363.048496,135.029387 C365.866917,136.652393 370.409211,136.652393 373.222556,135.036135 L371.515602,134.054233 L369.820489,133.077393 C368.874812,133.612209 367.369173,133.612209 366.428571,133.070644 C365.48797,132.52908 365.482895,131.658528 366.416729,131.11865 C367.350564,130.577086 368.868045,130.570337 369.808647,131.111902 C370.749248,131.651779 370.742481,132.52908 369.820489,133.077393 L371.515602,134.054233 L373.222556,135.036135 C376.012218,133.40638 376.007143,130.776166 373.188722,129.15316" id="Fill-21" fill="#88ADEE"></path>
                        <path d="M335.68156,103.404893 L335.68156,112.969156 C335.68156,114.668083 336.564643,116.367009 338.3325,117.247684 L359.540019,127.822531 C362.238327,129.16885 365.180244,129.842009 368.118778,129.842009 C371.057312,129.842009 373.995846,129.16885 376.695846,127.822531 L397.903365,117.247684 C399.66953,116.367009 400.554305,114.668083 400.554305,112.969156 L400.554305,103.404893 L335.68156,103.404893 Z" id="Fill-23" fill="#3976E2"></path>
                        <path d="M397.903872,107.682745 L376.696353,118.257592 C371.294662,120.95023 364.940526,120.95023 359.538835,118.257592 L338.333008,107.682745 C334.797293,105.919709 334.797293,100.890414 338.333008,99.1273773 L359.538835,88.5525307 C364.940526,85.8598926 371.294662,85.8598926 376.696353,88.5525307 L397.903872,99.1273773 C401.437895,100.890414 401.437895,105.919709 397.903872,107.682745" id="Fill-25" fill="#88ADEE"></path>
                        <g id="Group-29" transform="translate(382.330827, 224.386503)">
                            <mask id="mask-2" fill="white">
                                <use xlink:href="#path-1"></use>
                            </mask>
                            <g id="Clip-28"></g>
                            <path d="M63.526297,21.9849847 L42.3204699,32.5598313 C36.9187782,35.2524693 30.5646429,35.2524693 25.1629511,32.5598313 L3.95543233,21.9849847 C0.421409774,20.223635 0.421409774,15.1926534 3.95543233,13.4296166 L25.1629511,2.85645706 C30.5646429,0.162131902 36.9187782,0.162131902 42.3204699,2.85645706 L63.526297,13.4296166 C67.0620113,15.1926534 67.0620113,20.223635 63.526297,21.9849847" id="Fill-27" fill="#C9D9F0" mask="url(#mask-2)"></path>
                        </g>
                        <g id="Group-32" transform="translate(382.330827, 222.699387)">
                            <mask id="mask-4" fill="white">
                                <use xlink:href="#path-3"></use>
                            </mask>
                            <g id="Clip-31"></g>
                            <path d="M1.30567669,0.265046012 L1.30567669,9.82930982 C1.30567669,11.5282362 2.1887594,13.2271626 3.95492481,14.1078374 L25.1641353,24.682684 C27.8624436,26.0290031 30.8026692,26.7004755 33.741203,26.7004755 C36.6797368,26.7004755 39.6182707,26.0290031 42.3199624,24.682684 L63.5257895,14.1078374 C65.2936466,13.2271626 66.1784211,11.5282362 66.1784211,9.82930982 L66.1784211,0.265046012 L1.30567669,0.265046012 Z" id="Fill-30" fill="#3976E2" mask="url(#mask-4)"></path>
                        </g>
                        <g id="Group-35" transform="translate(382.330827, 205.828221)">
                            <mask id="mask-6" fill="white">
                                <use xlink:href="#path-5"></use>
                            </mask>
                            <g id="Clip-34"></g>
                            <path d="M63.526297,21.4140644 L42.3204699,31.988911 C36.9187782,34.6815491 30.5646429,34.6815491 25.1629511,31.988911 L3.95543233,21.4140644 C0.421409774,19.6510276 0.421409774,14.6217331 3.95543233,12.8586963 L25.1629511,2.28384969 C30.5646429,-0.408788344 36.9187782,-0.408788344 42.3204699,2.28384969 L63.526297,12.8586963 C67.0620113,14.6217331 67.0620113,19.6510276 63.526297,21.4140644" id="Fill-33" fill="#88ADEE" mask="url(#mask-6)"></path>
                        </g>
                        <path d="M397.903872,59.8585583 L376.696353,70.4334049 C371.294662,73.1260429 364.940526,73.1260429 359.538835,70.4334049 L338.333008,59.8585583 C334.797293,58.0972086 334.797293,53.066227 338.333008,51.3031902 L359.538835,40.7300307 C364.940526,38.0357055 371.294662,38.0357055 376.696353,40.7300307 L397.903872,51.3031902 C401.437895,53.066227 401.437895,58.0972086 397.903872,59.8585583" id="Fill-36" fill="#C9D9F0"></path>
                        <path d="M241.038947,118.948129 L363.322218,57.972362" id="Stroke-38" stroke="#88ADEE" stroke-width="4.79605263" stroke-linecap="round" stroke-linejoin="round"></path>
                        <path d="M373.188722,52.6405675 C370.370301,51.0175613 365.816165,51.0243098 363.024812,52.6405675 C360.225,54.2635736 360.230075,56.8937883 363.048496,58.5167945 C365.866917,60.1398006 370.421053,60.1347393 373.232707,58.5167945 L371.527444,57.5348926 L369.830639,56.5580521 C368.886654,57.0928681 367.369173,57.0996166 366.428571,56.5580521 C365.48797,56.0164877 365.494737,55.1408742 366.428571,54.5993098 C367.350564,54.0644939 368.868045,54.0577454 369.808647,54.5993098 C370.749248,55.1408742 370.742481,56.0164877 369.830639,56.5580521 L371.527444,57.5348926 L373.232707,58.5167945 C376.012218,56.8937883 376.007143,54.2635736 373.188722,52.6405675" id="Fill-40" fill="#88ADEE"></path>
                        <path d="M335.68156,17.3223006 L335.68156,26.8865644 C335.68156,28.5854908 336.564643,30.2827301 338.3325,31.165092 L359.540019,41.7399387 C362.238327,43.0862577 365.180244,43.7577301 368.118778,43.7577301 C371.057312,43.7577301 373.995846,43.0862577 376.695846,41.7399387 L397.903365,31.165092 C399.66953,30.2827301 400.554305,28.5838037 400.554305,26.8865644 L400.554305,17.3223006 L335.68156,17.3223006 Z" id="Fill-42" fill="#3976E2"></path>
                        <path d="M397.903872,21.6003221 L376.696353,32.1751687 C371.294662,34.8678067 364.940526,34.8678067 359.538835,32.1751687 L338.333008,21.6003221 C334.797293,19.8372853 334.797293,14.8079908 338.333008,13.044954 L359.538835,2.47010736 C364.940526,-0.222530675 371.294662,-0.222530675 376.696353,2.47010736 L397.903872,13.044954 C401.437895,14.8079908 401.437895,19.8372853 397.903872,21.6003221" id="Fill-44" fill="#88ADEE"></path>
                        <path d="M110.176071,203.330276 L88.9685526,213.905123 C83.5685526,216.597761 77.2127256,216.597761 71.8127256,213.905123 L50.6052068,203.330276 C47.0711842,201.568926 47.0711842,196.537945 50.6052068,194.774908 L71.8127256,184.201748 C77.2127256,181.507423 83.5685526,181.507423 88.9685526,184.201748 L110.176071,194.774908 C113.710094,196.537945 113.710094,201.568926 110.176071,203.330276" id="Fill-46" fill="#C9D9F0"></path>
                        <path d="M85.1858459,196.661779 L209.867989,134.489847" id="Stroke-48" stroke="#88ADEE" stroke-width="4.79605263" stroke-linecap="round" stroke-linejoin="round"></path>
                        <path d="M85.456015,196.114647 C82.637594,194.491641 78.093609,194.491641 75.293797,196.114647 C72.4922932,197.737653 72.4956767,200.367868 75.3157895,201.990874 C78.1342105,203.61388 82.700188,203.61388 85.5,201.990874 L83.7947368,201.008972 L82.0979323,200.032132 C81.1640977,200.573696 79.6364662,200.573696 78.6958647,200.032132 C77.7671053,199.497316 77.7620301,198.614954 78.6958647,198.07339 C79.6296992,197.531825 81.1471805,197.538574 82.0759398,198.07339 C83.0165414,198.614954 83.0317669,199.490567 82.0979323,200.032132 L83.7947368,201.008972 L85.5,201.990874 C88.3015038,200.367868 88.2761278,197.737653 85.456015,196.114647" id="Fill-50" fill="#88ADEE"></path>
                        <path d="M47.9546053,141.663972 L47.9546053,151.228236 C47.9546053,152.927163 48.837688,154.626089 50.6055451,155.506764 L71.8130639,166.08161 C74.5130639,167.427929 77.4515977,168.099402 80.3901316,168.099402 C83.3303571,168.099402 86.268891,167.427929 88.968891,166.08161 L110.17641,155.506764 C111.944267,154.626089 112.82735,152.927163 112.82735,151.228236 L112.82735,141.663972 L47.9546053,141.663972 Z" id="Fill-52" fill="#3976E2"></path>
                        <path d="M110.176071,145.941994 L88.9685526,156.51684 C83.5685526,159.209479 77.2127256,159.209479 71.8127256,156.51684 L50.6052068,145.941994 C47.0711842,144.178957 47.0711842,139.149663 50.6052068,137.386626 L71.8127256,126.811779 C77.2127256,124.119141 83.5685526,124.119141 88.9685526,126.811779 L110.176071,137.386626 C113.710094,139.149663 113.710094,144.178957 110.176071,145.941994" id="Fill-54" fill="#88ADEE"></path>
                        <g id="Group-58" transform="translate(0.000000, 237.883436)">
                            <mask id="mask-8" fill="white">
                                <use xlink:href="#path-7"></use>
                            </mask>
                            <g id="Clip-57"></g>
                            <path d="M62.2211278,22.8351227 L41.013609,33.4099693 C35.613609,36.1026074 29.257782,36.1026074 23.857782,33.4099693 L2.65026316,22.8351227 C-0.883759398,21.073773 -0.883759398,16.0427914 2.65026316,14.2797546 L23.857782,3.70659509 C29.257782,1.01226994 35.613609,1.01226994 41.013609,3.70659509 L62.2211278,14.2797546 C65.7551504,16.0427914 65.7551504,21.073773 62.2211278,22.8351227" id="Fill-56" fill="#C9D9F0" mask="url(#mask-8)"></path>
                        </g>
                        <path d="M37.2317481,254.050061 L257.823102,144.055123" id="Stroke-59" stroke="#88ADEE" stroke-width="4.79605263" stroke-linecap="round" stroke-linejoin="round"></path>
                        <path d="M37.5068233,253.501411 C34.6867105,251.878405 30.1342669,251.885153 27.3209211,253.501411 C24.5329511,255.131166 24.546485,257.754632 27.364906,259.377638 C30.1850188,261.000644 34.727312,261.000644 37.5288158,259.377638 L35.833703,258.402485 L34.1267481,257.418896 C33.1929135,257.96046 31.6855827,257.96046 30.7449812,257.418896 C29.8060714,256.877331 29.8009962,256.006779 30.7246805,255.460153 C31.6686654,254.925337 33.1861466,254.918589 34.1250564,255.460153 C35.0656579,256.001718 35.0605827,256.877331 34.1267481,257.418896 L35.833703,258.402485 L37.5288158,259.377638 C40.3286278,257.754632 40.3252444,255.124417 37.5068233,253.501411" id="Fill-61" fill="#88ADEE"></path>
                        <g id="Group-65" transform="translate(0.000000, 217.638037)">
                            <mask id="mask-10" fill="white">
                                <use xlink:href="#path-9"></use>
                            </mask>
                            <g id="Clip-64"></g>
                            <path d="M-0.000338345865,0.544263804 L-0.000338345865,10.1085276 C-0.000338345865,11.807454 0.882744361,13.5046933 2.6506015,14.3870552 L23.8581203,24.9602147 C26.5581203,26.3082209 29.4966541,26.9796933 32.435188,26.9796933 C35.3754135,26.9796933 38.3139474,26.3082209 41.0139474,24.9602147 L62.2214662,14.3870552 C63.9893233,13.5046933 64.872406,11.8057669 64.872406,10.1085276 L64.872406,0.544263804 L-0.000338345865,0.544263804 Z" id="Fill-63" fill="#3976E2" mask="url(#mask-10)"></path>
                        </g>
                        <g id="Group-68" transform="translate(0.000000, 200.766871)">
                            <mask id="mask-12" fill="white">
                                <use xlink:href="#path-11"></use>
                            </mask>
                            <g id="Clip-67"></g>
                            <path d="M62.2211278,21.6926074 L41.013609,32.267454 C35.613609,34.960092 29.257782,34.960092 23.857782,32.267454 L2.65026316,21.6926074 C-0.883759398,19.9312577 -0.883759398,14.9002761 2.65026316,13.1372393 L23.857782,2.56407975 C29.257782,-0.130245399 35.613609,-0.130245399 41.013609,2.56407975 L62.2211278,13.1372393 C65.7551504,14.9002761 65.7551504,19.9312577 62.2211278,21.6926074" id="Fill-66" fill="#88ADEE" mask="url(#mask-12)"></path>
                        </g>
                        <path d="M76.7271992,38.7095399 L76.7271992,48.2738037 C76.7271992,49.9727301 77.610282,51.6716564 79.3781391,52.5523313 L119.766485,72.6914417 C122.466485,74.0377607 125.405019,74.7109202 128.345244,74.7109202 C131.283778,74.7109202 134.224004,74.0377607 136.924004,72.6914417 L177.31235,52.5523313 C179.078515,51.6716564 179.963289,49.9727301 179.963289,48.2738037 L179.963289,38.7095399 L76.7271992,38.7095399 Z" id="Fill-69" fill="#3976E2"></path>
                        <path d="M177.311673,42.9873926 L136.923327,63.1265031 C131.523327,65.8191411 125.1675,65.8191411 119.765808,63.1265031 L79.3774624,42.9873926 C75.8434398,41.2243558 75.8434398,36.1950613 79.3774624,34.4320245 L119.765808,14.2929141 C125.1675,11.6002761 131.523327,11.6002761 136.923327,14.2929141 L177.311673,34.4320245 C180.847387,36.1950613 180.847387,41.2243558 177.311673,42.9873926" id="Fill-71" fill="#88ADEE"></path>
                        <path d="M206.084267,232.024417 L184.87844,242.599264 C179.476748,245.291902 173.122613,245.291902 167.720921,242.599264 L146.515094,232.024417 C142.97938,230.263067 142.97938,225.232086 146.515094,223.469049 L167.720921,212.89589 C173.122613,210.201564 179.476748,210.201564 184.87844,212.89589 L206.084267,223.469049 C209.619981,225.232086 209.619981,230.263067 206.084267,232.024417" id="Fill-73" fill="#C9D9F0"></path>
                        <polyline id="Stroke-75" stroke="#88ADEE" stroke-width="4.79605263" stroke-linecap="round" stroke-linejoin="round" points="181.094887 225.35592 272.208045 179.923558 233.846391 160.793344"></polyline>
                        <path d="M181.367425,224.81385 C178.549004,223.190844 173.994868,223.184095 171.193365,224.808788 C168.391861,226.430107 168.418929,229.062009 171.23735,230.685015 C174.057462,232.308021 178.599756,232.308021 181.401259,230.685015 L179.706147,229.708175 L177.999192,228.726273 C177.065357,229.267837 175.556335,229.267837 174.607274,228.731334 C173.678515,228.184709 173.661598,227.309095 174.595432,226.767531 C175.529267,226.225966 177.046748,226.232715 177.98735,226.772592 C178.927951,227.314156 178.933026,228.184709 177.999192,228.726273 L179.706147,229.708175 L181.401259,230.685015 C184.201071,229.062009 184.185846,226.436856 181.367425,224.81385" id="Fill-77" fill="#88ADEE"></path>
                        <path d="M143.863647,189.48816 L143.863647,199.052423 C143.863647,200.75135 144.746729,202.448589 146.514586,203.330951 L167.722105,213.90411 C170.420414,215.252117 173.360639,215.923589 176.299173,215.923589 C179.237707,215.923589 182.177932,215.252117 184.877932,213.90411 L206.083759,203.330951 C207.851617,202.448589 208.736391,200.749663 208.736391,199.050736 L208.736391,189.48816 L143.863647,189.48816 Z" id="Fill-79" fill="#3976E2"></path>
                        <path d="M206.084267,193.765337 L184.87844,204.340184 C179.476748,207.032822 173.122613,207.032822 167.720921,204.340184 L146.515094,193.765337 C142.97938,192.003988 142.97938,186.973006 146.515094,185.209969 L167.720921,174.63681 C173.122613,171.942485 179.476748,171.942485 184.87844,174.63681 L206.084267,185.209969 C209.619981,186.973006 209.619981,192.003988 206.084267,193.765337" id="Fill-81" fill="#88ADEE"></path>
                        <path d="M153.454737,122.53477 L153.454737,132.099034 C153.454737,133.79796 154.33782,135.495199 156.105677,136.377561 L215.676541,166.080936 C218.37485,167.427255 221.315075,168.100414 224.253609,168.100414 C227.192143,168.100414 230.132368,167.427255 232.832368,166.080936 L292.403233,136.377561 C294.17109,135.495199 295.054173,133.796273 295.054173,132.099034 L295.054173,122.53477 L153.454737,122.53477 Z" id="Fill-83" fill="#3976E2"></path>
                        <path d="M292.403741,126.811948 L232.832876,156.515322 C227.432876,159.209647 221.077049,159.209647 215.677049,156.515322 L156.106184,126.811948 C152.57047,125.050598 152.57047,120.019617 156.106184,118.25658 L215.677049,88.5532055 C221.077049,85.8605675 227.432876,85.8605675 232.832876,88.5532055 L292.403741,118.25658 C295.937763,120.019617 295.937763,125.050598 292.403741,126.811948" id="Fill-85" fill="#88ADEE"></path>
                        <g id="Group-89" transform="translate(182.706767, 94.478528)">
                            <mask id="mask-14" fill="white">
                                <use xlink:href="#path-13"></use>
                            </mask>
                            <g id="Clip-88"></g>
                            <path d="M52.0873308,12.0913957 C44.3865789,8.09461656 32.255188,8.62268405 24.9841353,13.2723773 C23.8439098,13.9995245 22.8914662,14.7890951 22.1234211,15.612408 C21.9897744,15.5314264 21.8358271,15.4504448 21.6920301,15.3762117 C17.8416541,13.3769785 11.7751128,13.6418558 8.13789474,15.9667025 C4.51421053,18.2848006 4.68676692,21.7872546 8.53714286,23.7864877 L50.3431579,45.4895552 C54.1935338,47.4887883 60.2600752,47.223911 63.8854511,44.9075 C67.5209774,42.5826534 67.3484211,39.0785123 63.4980451,37.0809663 C68.9521805,33.5936963 68.6916541,28.3383282 62.9279323,25.3453834 C61.2142105,24.456273 59.2010526,23.8590337 57.0846992,23.558727 C59.4074436,19.5231442 57.7072556,15.0084202 52.0873308,12.0913957" id="Fill-87" fill="#FFFFFF" mask="url(#mask-14)"></path>
                        </g>
                        <g id="Group-92" transform="translate(13.533835, 207.515337)">
                            <mask id="mask-16" fill="white">
                                <use xlink:href="#path-15"></use>
                            </mask>
                            <g id="Clip-91"></g>
                            <path d="M27.9553195,6.01912577 L12.8938534,4.4332362 L15.8915977,12.2108436 L28.2107707,13.4998006 L21.2357707,17.079862 L22.8868985,17.9369172 L30.9429135,13.8034816 L27.9553195,6.01912577 Z M23.4417857,14.2421319 L13.8632143,13.2534816 L12.0006203,8.3034816 L7.95569549,10.378635 L9.85381579,15.3100767 L19.3951692,16.3189724 L23.4417857,14.2421319 Z" id="Fill-90" fill="#C9D9F0" mask="url(#mask-16)"></path>
                        </g>
                        <g id="Group-95" transform="translate(155.639098, 178.834356)">
                            <mask id="mask-18" fill="white">
                                <use xlink:href="#path-17"></use>
                            </mask>
                            <g id="Clip-94"></g>
                            <path d="M38.687312,8.5654908 L24.8794173,1.39693252 C24.2856203,1.0898773 23.5108083,0.965030675 22.575282,1.01058282 C21.6296053,1.05276074 20.7972744,1.26365031 20.0698308,1.63650307 L3.19990602,10.2964724 C2.48599624,10.6642638 2.07321429,11.0911043 1.97678571,11.5854294 C1.88035714,12.0679448 2.12904135,12.4644172 2.71945489,12.7714724 L16.5290414,19.9400307 C17.1363722,20.2302147 17.8925752,20.3432515 18.8094925,20.2875767 C19.7264098,20.2319018 20.5452068,20.0277607 21.2489662,19.6667178 L21.2963346,19.641411 L21.3420113,19.6177914 L38.2136278,10.9578221 L38.4673872,10.7874233 L38.6974624,10.5917178 L18.2850564,12.4509202 C18.0634398,12.4677914 17.8418233,12.4627301 17.6472744,12.4340491 C17.4324248,12.4070552 17.2412594,12.3564417 17.0771617,12.2838957 C16.924906,12.2046012 16.8132519,12.1219325 16.7591165,12.0223926 C16.6948308,11.9279141 16.6728383,11.8199387 16.6948308,11.7102761 L17.312312,8.54355828 C17.3343045,8.43389571 17.3985902,8.32254601 17.4933271,8.21457055 C17.6100564,8.10659509 17.7453947,8.0053681 17.9213346,7.91595092 C18.2732143,7.73542945 18.6826128,7.63420245 19.1292293,7.61226994 C19.5758459,7.58865031 19.9531015,7.65107362 20.2508459,7.80460123 C20.3828008,7.87546012 20.4910714,7.96825153 20.543515,8.06779141 C20.6196429,8.16733129 20.6399436,8.27530675 20.6179511,8.38496933 L20.1730263,10.6946319 L38.8987782,8.98895706 L39.0442669,8.99233129 L39.1694549,8.99739264 C39.1339286,8.91809816 39.0645677,8.84555215 38.993515,8.77300613 C38.9021617,8.70214724 38.8108083,8.62960123 38.687312,8.5654908" id="Fill-93" fill="#C9D9F0" mask="url(#mask-18)"></path>
                        </g>
                        <g id="Group-98" transform="translate(395.864662, 212.576687)">
                            <mask id="mask-20" fill="white">
                                <use xlink:href="#path-19"></use>
                            </mask>
                            <g id="Clip-97"></g>
                            <path d="M38.4824436,8.43288344 L24.1010526,0.967392638 C23.5935338,0.704202454 22.9405263,0.594539877 22.1454135,0.629969325 C21.3469173,0.673834356 20.636391,0.850981595 20.0155263,1.16984663 L2.35894737,10.2330368 C1.73808271,10.5519018 1.3912782,10.9180061 1.29992481,11.3296626 C1.22887218,11.7396319 1.43695489,12.0787423 1.94109023,12.3402454 L16.3241729,19.8074233 C16.83,20.0689264 17.4830075,20.178589 18.2696617,20.1380982 C19.0783083,20.0992945 19.7871429,19.9221472 20.4080075,19.6032822 L38.0645865,10.540092 C38.6854511,10.221227 39.0322556,9.85680982 39.1151504,9.44009202 C39.1946617,9.03349693 38.9882707,8.69607362 38.4824436,8.43288344 M14.1435338,11.510184 C14.0403383,11.4561963 13.9997368,11.3853374 14.0065038,11.3043558 C14.0217293,11.2284356 14.0910902,11.1423926 14.2095113,11.0715337 L21.2555639,7.45435583 L21.6734211,7.36831288 C21.8442857,7.3598773 21.9762406,7.3801227 22.0828195,7.43579755 L22.1640226,7.49147239 L22.2063158,7.54883436 L23.6442857,11.9387117 L23.6138346,12.0922393 L23.4378947,12.2305828 L23.1553759,12.3267485 L22.8694737,12.335184 L14.3753008,11.5692331 L14.2518045,11.5540491 L14.1435338,11.510184" id="Fill-96" fill="#C9D9F0" mask="url(#mask-20)"></path>
                        </g>
                        <g id="Group-101" transform="translate(252.067669, 35.429448)">
                            <mask id="mask-22" fill="white">
                                <use xlink:href="#path-21"></use>
                            </mask>
                            <g id="Clip-100"></g>
                            <path d="M38.406485,8.63550613 L24.025094,1.17001534 C23.5192669,0.906825153 22.8781015,0.792101227 22.0711466,0.832592025 C21.2828008,0.871395706 20.5621241,1.05360429 19.9531015,1.36740798 L2.28468045,10.4356595 C1.66212406,10.7545245 1.31701128,11.1206288 1.23580827,11.5255368 C1.15291353,11.9422546 1.37283835,12.2746166 1.87866541,12.5378067 L16.2600564,20.0032975 C16.7675752,20.2664877 17.4070489,20.3812117 18.2156955,20.3407209 C19.0023496,20.3019172 19.7111842,20.1247699 20.3320489,19.8059049 L38.0021617,10.7376534 C38.6111842,10.4238497 38.9681391,10.052684 39.0493421,9.64777607 C39.1322368,9.23105828 38.9140038,8.89869632 38.406485,8.63550613 M22.7512218,7.38366564 L22.9288534,7.45115031 L23.1132519,7.47476994 L23.1995301,7.51863497 C23.3940789,7.59624233 23.6529135,7.62154908 23.9523496,7.59624233 C24.2416353,7.57599693 24.4970865,7.50345092 24.7085526,7.39547546 L24.7559211,7.37016871 L24.8032895,7.34654908 L24.899718,7.2875 L25.0181391,7.2166411 L25.1450188,7.16096626 L25.2702068,7.10697853 L25.5425752,6.96863497 L25.7540414,7.06648773 L25.9925752,7.18964724 L26.231109,7.31280675 L26.4594925,7.44271472 L26.4391917,7.43427914 C26.5914474,7.51357362 26.7335526,7.59792945 26.8739662,7.68397239 C27.0042293,7.77507669 27.1344925,7.85605828 27.2427632,7.94716258 L26.8046053,8.1428681 L26.2412594,8.43305215 L26.1820489,8.46173313 L26.1109962,8.49884969 L26.0653195,8.52246933 L25.9824248,8.56464724 C25.9215226,8.71480061 25.924906,8.86157975 25.968891,9.00498466 C26.0145677,9.15007669 26.1380639,9.27492331 26.337688,9.37783742 L26.3765977,9.39808282 L26.5440789,9.44869632 L26.7504699,9.47231595 L28.1021617,9.5077454 C28.1410714,9.74562883 28.1258459,9.98013804 28.0784774,10.2213957 C28.031109,10.4525307 27.9397556,10.6954755 27.8213346,10.9232362 L27.0109962,11.0345859 L26.4256579,11.1189417 L26.175282,11.1577454 L25.9570489,11.2505368 L25.7641917,11.368635 L25.6762218,11.5036043 C25.4715226,11.6267638 25.3598684,11.7634202 25.3412594,11.9118865 C25.3209586,12.0704755 25.412312,12.1902607 25.5933271,12.2847393 L25.6220865,12.2999233 L25.6508459,12.3151074 L26.2818609,12.642408 C26.1076128,12.7706288 25.9265977,12.8921012 25.7134398,13.0118865 C25.5087406,13.1367331 25.2837406,13.2615798 25.0384398,13.3881135 L24.8861842,13.4657209 L24.7339286,13.5450153 L24.6273496,13.5990031 L24.4767857,13.6766104 L24.3448308,13.742408 L24.2162594,13.8098926 L23.2570489,13.4454755 C23.1335526,13.3796779 22.981297,13.3493098 22.793515,13.3476227 C22.6125,13.3509969 22.4382519,13.381365 22.2792293,13.4437883 L21.893515,13.5230828 L21.5297932,13.6614264 C21.3995301,13.7272239 21.3014098,13.8082055 21.2320489,13.8925613 C21.1508459,13.9836656 21.1017857,14.0680215 21.0865602,14.1456288 L20.9952068,14.3885736 L20.8734023,14.639954 C20.4047932,14.7108129 19.9547932,14.7546779 19.4946429,14.7833589 C19.049718,14.8069785 18.5946429,14.8120399 18.156485,14.7901074 L18.0803571,14.3767638 L18.0921992,14.1034509 L18.0600564,13.9532975 L17.9044173,13.8368865 L17.7369361,13.7744632 L17.5305451,13.7508436 L17.4442669,13.7069785 C17.249718,13.6293712 16.9908835,13.6040644 16.7032895,13.6243098 C16.4140038,13.6445552 16.1585526,13.7171012 15.9352444,13.8318252 L15.8878759,13.8554448 L15.8405075,13.8790644 C15.681485,13.9414877 15.5326128,14.0089724 15.3837406,14.0646472 C15.2365602,14.1203221 15.1096805,14.1759969 14.9709586,14.2266104 C14.8271617,14.1625 14.6512218,14.0967025 14.4854323,14.0224693 C14.3213346,13.9499233 14.1572368,13.8756902 14.0032895,13.7963957 L13.9948308,13.7913344 C13.8324248,13.7069785 13.7004699,13.627684 13.5583647,13.5416411 C13.4281015,13.4606595 13.3079887,13.3763037 13.2014098,13.2818252 L13.6852444,13.0743098 L13.9660714,12.9292178 L14.268891,12.7740031 C14.4025376,12.6963957 14.4820489,12.6052914 14.4989662,12.5175613 C14.5294173,12.4230828 14.5141917,12.3421012 14.4549812,12.2644939 L14.3670113,12.0721626 L14.1656955,11.9203221 C14.0320489,11.8494632 13.8933271,11.8022239 13.7173872,11.7836656 C13.5549812,11.760046 13.3875,11.7583589 13.2047932,11.7718558 L12.9290414,11.7752301 L12.6448308,11.7718558 L12.3115602,11.7566718 C12.2963346,11.5187883 12.3014098,11.2792178 12.3386278,11.0430215 C12.3944549,10.8068252 12.4739662,10.5689417 12.5822368,10.3361196 L13.4382519,10.2230828 L13.9762218,10.1623466 L14.2519737,10.0999233 L14.4905075,10.0071319 L14.674906,9.88397239 L14.7967105,9.7422546 C15.0047932,9.59547546 15.1096805,9.44363497 15.1198308,9.27998466 C15.1198308,9.12308282 15.0301692,8.99148773 14.8288534,8.8868865 L14.7713346,8.8565184 C14.6799812,8.79746933 14.5953947,8.74010736 14.5226504,8.67937117 L14.3044173,8.50559816 C14.449906,8.41111963 14.6055451,8.32170245 14.7696429,8.22722393 C14.9489662,8.12599693 15.1147556,8.0315184 15.3025376,7.93366564 C15.4903195,7.8375 15.6865602,7.74639571 15.8929511,7.66035276 C16.0993421,7.57430982 16.3074248,7.48826687 16.4901316,7.41403374 L16.8521617,7.6131135 L17.4476504,7.8375 L17.7352444,7.8779908 L18.031297,7.87461656 L18.2613722,7.83581288 L18.6995301,7.74976994 L19.0767857,7.59455521 C19.2645677,7.49838957 19.4117481,7.39210123 19.4963346,7.27906442 C19.5826128,7.16602761 19.624906,7.05636503 19.6384398,6.9416411 L19.6908835,6.77461656 L19.7906955,6.59746933 C20.2576128,6.52492331 20.7093045,6.48105828 21.1677632,6.4523773 C21.6143797,6.43044479 22.0677632,6.42369632 22.4974624,6.44056748 L22.5532895,6.84378834 L22.5702068,7.13228528 L22.6277256,7.27062883 L22.7512218,7.38366564 M23.043891,9.04884969 C22.3925752,8.72154908 21.5568609,8.57983129 20.5452068,8.63550613 C19.5453947,8.68443252 18.6352444,8.91556748 17.8519737,9.31878834 L17.8147556,9.33565951 L17.7809211,9.35421779 L17.7453947,9.37277607 C17.3596805,9.57016871 17.0399436,9.7928681 16.825094,10.0324387 C16.5967105,10.2770706 16.474906,10.5166411 16.4410714,10.7511503 C16.3801692,10.9991564 16.4173872,11.2370399 16.5425752,11.4580521 C16.6762218,11.6858129 16.8995301,11.8865798 17.2243421,12.0552914 C17.8824248,12.396089 18.7299812,12.5344325 19.7517857,12.483819 C20.7837406,12.4264571 21.693891,12.1970092 22.5025376,11.7819785 C23.3111842,11.3669479 23.774718,10.891181 23.8677632,10.3597393 C23.9861842,9.82829755 23.7036654,9.38964724 23.043891,9.04884969" id="Fill-99" fill="#C9D9F0" mask="url(#mask-22)"></path>
                        </g>
                        <g id="Group-111" transform="translate(346.804511, 5.061350)">
                            <g id="Group-104">
                                <mask id="mask-24" fill="white">
                                    <use xlink:href="#path-23"></use>
                                </mask>
                                <g id="Clip-103"></g>
                                <polygon id="Fill-102" fill="#C9D9F0" mask="url(#mask-24)" points="17.8215226 4.46546012 4.5262218 11.2898466 9.33411654 17.2116258 22.631109 10.3872393"></polygon>
                            </g>
                            <g id="Group-107">
                                <mask id="mask-26" fill="white">
                                    <use xlink:href="#path-25"></use>
                                </mask>
                                <g id="Clip-106"></g>
                                <polygon id="Fill-105" fill="#C9D9F0" mask="url(#mask-26)" points="32.391203 6.30424847 20.9432707 3.79888037 25.7427068 9.71559816 37.1889474 12.2327761"></polygon>
                            </g>
                            <g id="Group-110">
                                <mask id="mask-28" fill="white">
                                    <use xlink:href="#path-27"></use>
                                </mask>
                                <g id="Clip-109"></g>
                                <polygon id="Fill-108" fill="#C9D9F0" mask="url(#mask-28)" points="35.8705827 13.8360429 24.4344925 11.3239264 11.1408835 18.15 22.575282 20.6604294"></polygon>
                            </g>
                        </g>
                        <g id="Group-114" transform="translate(60.902256, 131.595092)">
                            <mask id="mask-30" fill="white">
                                <use xlink:href="#path-29"></use>
                            </mask>
                            <g id="Clip-113"></g>
                            <path d="M25.1807143,4.22825153 C23.4043985,3.30539877 20.5250752,3.22610429 17.9299624,3.87733129 L17.6626692,3.73898773 C15.7527068,2.74696319 12.232218,2.92748466 9.81642857,4.16751534 C7.38879699,5.41429448 7.10120301,7.18745399 9.01116541,8.17947853 L16.8421805,12.2454294 C16.4784586,12.6385276 16.5393609,13.0805521 17.1314662,13.3876074 C17.857218,13.7655215 19.1767669,13.6997239 20.1376692,13.2053988 C21.1104135,12.7060123 21.1628571,12.0682822 20.3711278,11.6566258 C19.845,11.3833129 18.988985,11.3512577 18.1583459,11.501411 L10.395,7.46920245 C9.07545113,6.78592025 9.3968797,5.53576687 11.0040226,4.71245399 C12.6213158,3.88070552 15.0438722,3.72211656 16.3617293,4.40708589 L17.4799624,4.98745399 C17.8081579,4.81874233 18.27,4.71920245 18.6523308,4.5909816 L19.1158647,4.49144172 C20.8465038,4.14558282 22.707406,4.2754908 23.8916165,4.88960123 C24.9421805,5.43453988 25.2230075,6.24773006 24.8423684,7.05417178 C25.3312782,7.13852761 25.8286466,7.22794479 26.3040226,7.38822086 C27.1008271,6.22917178 26.7658647,5.05156442 25.1807143,4.22825153 M27.0619173,8.29082822 C24.7594737,7.09634969 20.8329699,7.14021472 17.7134211,8.26889571 C16.432782,7.77288344 14.7122932,7.62947853 13.0645489,7.86398773 L18.7944361,10.8383742 C19.8314662,10.7101534 20.7517669,10.850184 21.4098496,11.1909816 C22.5957519,11.8067791 22.3030827,12.9017178 20.8498872,13.6474233 C19.3966917,14.394816 17.1940602,14.5095399 16.0758271,13.9291718 C15.4177444,13.5866871 15.2367293,13.0704294 15.407594,12.5777914 L9.02808271,9.2659816 C7.02338346,10.5616871 6.81699248,12.2943558 8.65928571,13.2509509 L17.2160526,17.6931288 C19.5844737,18.9213497 23.8391729,18.7104601 26.8284586,17.175184 C29.8177444,15.6415951 30.2542105,13.4449693 28.0346617,12.2083129 C29.1748872,10.8046319 28.9042105,9.24742331 27.0619173,8.29082822" id="Fill-112" fill="#C9D9F0" mask="url(#mask-30)"></path>
                        </g>
                        <g id="Group-127" transform="translate(348.496241, 92.791411)">
                            <g id="Group-117">
                                <mask id="mask-32" fill="white">
                                    <use xlink:href="#path-31"></use>
                                </mask>
                                <g id="Clip-116"></g>
                                <path d="M16.5495113,4.72088957 L11.4455639,5.65386503 C10.845,5.76521472 10.1666165,6.11444785 9.94669173,6.4248773 L5.5025188,12.7481902 C5.28259398,13.0569325 5.42131579,13.4803988 5.81210526,13.6828528 L10.4626692,16.0988037 C10.7739474,16.1257975 11.1224436,16.1139877 11.4184962,16.0616871 L16.4835338,15.1084663 L10.9634211,12.2420552 L14.0931203,7.71720859 L15.8051504,5.24220859 C15.9184962,5.08868098 16.1570301,4.91659509 16.4310902,4.77825153 C16.47,4.75800613 16.5106015,4.73944785 16.5495113,4.72088957" id="Fill-115" fill="#88ADEE" mask="url(#mask-32)"></path>
                            </g>
                            <g id="Group-120">
                                <mask id="mask-34" fill="white">
                                    <use xlink:href="#path-33"></use>
                                </mask>
                                <g id="Clip-119"></g>
                                <path d="M31.4659962,10.6603834 L28.3244549,9.02894172 L25.1152444,13.476181 L16.4840414,15.1076227 L11.417312,16.0608436 C11.1229511,16.1131442 10.7744549,16.1266411 10.4631767,16.0979601 L13.6233271,17.7395245 C14.0158083,17.9419785 14.8329135,18.0145245 15.4334774,17.9031748 L20.3073496,17.0090031 L27.7086654,15.6458129 C28.3092293,15.5344632 28.9893045,15.1852301 29.2092293,14.8764877 L31.8483271,11.1243405 C31.7992669,10.9421319 31.6757707,10.770046 31.4659962,10.6603834" id="Fill-118" fill="#C9D9F0" mask="url(#mask-34)"></path>
                            </g>
                            <g id="Group-123">
                                <mask id="mask-36" fill="white">
                                    <use xlink:href="#path-35"></use>
                                </mask>
                                <g id="Clip-122"></g>
                                <path d="M33.3428008,7.61648773 L30.2689286,6.02047546 L25.5320865,3.56065951 C25.1396053,3.35820552 24.3225,3.28397239 23.7219361,3.3970092 L16.5490038,4.72139571 C16.510094,4.73826687 16.4694925,4.75851227 16.4305827,4.77707055 C16.1565226,4.91710123 15.9179887,5.0875 15.8046429,5.24102761 L14.0926128,7.71771472 L22.7373496,6.13013804 L28.3234398,9.02860429 L31.4666729,10.660046 C31.6764474,10.7697086 31.7999436,10.9434816 31.847312,11.1256902 L33.6540789,8.55283742 C33.8706203,8.24240798 33.7335902,7.82062883 33.3428008,7.61648773" id="Fill-121" fill="#C9D9F0" mask="url(#mask-36)"></path>
                            </g>
                            <g id="Group-126">
                                <mask id="mask-38" fill="white">
                                    <use xlink:href="#path-37"></use>
                                </mask>
                                <g id="Clip-125"></g>
                                <path d="M22.5927068,9.09271472 C21.2562406,8.3976227 18.81,8.52078221 17.1436466,9.37446319 C15.4806767,10.2298313 15.2404511,11.485046 16.578609,12.180138 C17.9252256,12.8786043 20.3596241,12.7621933 22.0242857,11.9085123 C23.6889474,11.0531442 23.9393233,9.79118098 22.5927068,9.09271472" id="Fill-124" fill="#C9D9F0" mask="url(#mask-38)"></path>
                            </g>
                        </g>
                        <g id="Group-130" transform="translate(102.403759, 21.932515)">
                            <mask id="mask-40" fill="white">
                                <use xlink:href="#path-39"></use>
                            </mask>
                            <g id="Clip-129"></g>
                            <path d="M41.8423872,6.9401227 C35.2141917,3.49840491 23.1961466,4.0990184 15.0470865,8.28138037 C6.91156015,12.458681 5.67152256,18.6655828 12.2980263,22.1056135 C18.9346805,25.5507055 30.9662594,24.9450307 39.1017857,20.7694172 C47.2508459,16.5870552 48.4790414,10.3852147 41.8423872,6.9401227 M16.4613722,15.9138957 C15.9961466,15.672638 16.150094,15.164816 16.9824248,14.9387423 L33.9538534,10.2890491 C34.4596805,10.1523926 34.9350564,10.1996319 35.2158835,10.346411 C35.4984023,10.4915031 35.5863722,10.7378221 35.3190789,10.997638 L26.2175752,19.7335276 C25.7743421,20.1603681 24.7846805,20.2346012 24.3211466,19.9950307 C24.1705827,19.9157362 24.0758459,19.8043865 24.0724624,19.6609816 L24.0352444,16.5533129 C24.0301692,16.4183436 23.9354323,16.3019325 23.774718,16.2192638 C23.6140038,16.1365951 23.3906955,16.0859816 23.1267857,16.0826074 L17.1109962,16.0454908 C16.8284774,16.0438037 16.6119361,15.9915031 16.4613722,15.9138957" id="Fill-128" fill="#C9D9F0" mask="url(#mask-40)"></path>
                        </g>
                    </g>
                </g>
            </g>
        </g>
    </g>
</svg>