<svg height="512pt" viewBox="0 -6 512 512" width="512pt" xmlns="http://www.w3.org/2000/svg" xmlns:xlink="http://www.w3.org/1999/xlink"><linearGradient id="a" gradientUnits="userSpaceOnUse" x1="0" x2="512" y1="249.5" y2="249.5"><stop offset="0" stop-color="#00f2fe"/><stop offset=".0208" stop-color="#03effe"/><stop offset=".2931" stop-color="#24d2fe"/><stop offset=".5538" stop-color="#3cbdfe"/><stop offset=".7956" stop-color="#4ab0fe"/><stop offset="1" stop-color="#4facfe"/></linearGradient><path d="m273 239.714844v195.570312c9.0625 6.324219 15 16.824219 15 28.714844 0 19.328125-15.671875 35-35 35s-35-15.671875-35-35c0-11.890625 5.9375-22.390625 15-28.714844v-195.570312c-9.0625-6.324219-15-16.824219-15-28.714844 0-19.328125 15.671875-35 35-35s35 15.671875 35 35c0 11.890625-5.9375 22.390625-15 28.714844zm-109-12.714844c-19.328125 0-35 15.671875-35 35 0 11.890625 5.9375 22.390625 15 28.714844v116l-24.847656 24.847656c-4.0625-1.648438-8.5-2.5625-13.152344-2.5625-19.328125 0-35 15.671875-35 35s15.671875 35 35 35c18.53125 0 33.6875-14.402344 34.910156-32.625l37.230469-37.234375c3.75-3.75 5.859375-8.835937 5.859375-14.140625v-124.285156c9.0625-6.324219 15-16.824219 15-28.714844 0-19.328125-15.671875-35-35-35zm233 202c-2.402344 0-4.746094.242188-7.011719.703125l-24.988281-24.988281v-85c9.0625-6.324219 15-16.824219 15-28.714844 0-19.328125-15.671875-35-35-35s-35 15.671875-35 35c0 11.890625 5.9375 22.390625 15 28.714844v93.285156c0 5.304688 2.105469 10.390625 5.855469 14.144531l31.546875 31.542969c-.265625 1.734375-.402344 3.507812-.402344 5.3125 0 19.332031 15.671875 35 35 35s35-15.667969 35-35c0-19.328125-15.671875-35-35-35zm65-279.355469v-13.324219c0-75.167968-61.152344-136.320312-136.320312-136.320312-32.734376 0-64.382813 11.777344-89.117188 33.160156-16.363281 14.144532-29.023438 31.878906-37.09375 51.589844-12.402344-6.335938-26.25-9.75-40.46875-9.75-49.074219 0-89 39.925781-89 89v18.1875c-40.023438 8.972656-70 44.492188-70 86.8125 0 23.773438 9 46.066406 25.339844 62.773438 16.542968 16.914062 38.792968 26.226562 62.660156 26.226562 11.046875 0 20-8.953125 20-20s-8.953125-20-20-20c-26.914062 0-48-21.523438-48-49 0-27.019531 22.359375-49 49.847656-49h.152344c11.046875 0 20-8.953125 20-20v-36c0-27.019531 21.980469-49 49-49 14.035156 0 27.425781 6.050781 36.742188 16.605469 5.132812 5.816406 13.164062 8.140625 20.609374 5.957031 7.445313-2.179688 12.960938-8.464844 14.148438-16.132812 7.191406-46.421876 48.109375-81.429688 95.175781-81.429688 53.113281 0 96.324219 43.210938 96.324219 96.320312v24.601563c0 7.398437 4.085938 14.195313 10.625 17.664063 24.285156 12.890624 39.375 37.957031 39.375 65.414062 0 34.761719-23.625 64.429688-57.449219 72.144531-10.769531 2.460938-17.507812 13.179688-15.050781 23.949219 2.460938 10.769531 13.179688 17.507812 23.949219 15.050781 24.773437-5.652343 47.25-19.707031 63.289062-39.574219 16.289063-20.175781 25.261719-45.59375 25.261719-71.570312 0-38.132812-18.882812-73.261719-50-94.355469zm0 0" fill="url(#a)"/></svg>