<svg id="Capa_1" enable-background="new 0 0 512 512" height="512" viewBox="0 0 512 512" width="512" xmlns="http://www.w3.org/2000/svg" xmlns:xlink="http://www.w3.org/1999/xlink"><linearGradient id="SVGID_1_" gradientUnits="userSpaceOnUse" x1="256" x2="256" y1="512" y2="0"><stop offset="0" stop-color="#addcff"/><stop offset=".5028" stop-color="#eaf6ff"/><stop offset="1" stop-color="#eaf6ff"/></linearGradient><linearGradient id="SVGID_2_" gradientUnits="userSpaceOnUse" x1="256" x2="256" y1="407" y2="105"><stop offset="0" stop-color="#00c0ff"/><stop offset="1" stop-color="#5558ff"/></linearGradient><g><g><circle cx="256" cy="256" fill="url(#SVGID_1_)" r="256"/></g><g><g><path d="m107.634 315.409c-3.512 3.512-3.512 9.201 0 12.713l76.244 76.244c3.512 3.512 9.201 3.512 12.713 0l57.253-57.253-88.957-88.957zm170.565-94.33c-3.503 3.503-3.503 9.219.009 12.722 3.494 3.503 9.201 3.486 12.713 0 3.503-3.512 3.503-9.219 0-12.722-1.756-1.756-4.056-2.634-6.365-2.634-2.301 0-4.601.878-6.357 2.634zm30.506-5.07c4.724 10.009 3.195 22.24-5.07 30.505v.009c-10.517 10.5-27.63 10.501-38.148 0-10.51-10.527-10.51-27.639-.009-38.157 8.278-8.265 20.506-9.794 30.514-5.07l98.295-98.296-175.773 50.248c-2.529.729-4.609 2.511-5.698 4.89l-37.973 82.548 94.471 94.471 82.548-37.973c2.379-1.089 4.162-3.17 4.89-5.698l50.248-175.773z" fill="url(#SVGID_2_)"/></g></g></g></svg>