<svg id="Layer_1" enable-background="new 0 0 512 512" height="512" viewBox="0 0 512 512" width="512" xmlns="http://www.w3.org/2000/svg"><g><g><path d="m399.202 332.391v142.15h-289.802v-142.161c0-23.3 15.349-44.19 37.884-50.16l81.584-16.67 52.134.31 35.995 7.33 44.31 9.03c22.546 5.98 37.895 26.861 37.895 50.171z" fill="#466175"/><path d="m399.202 332.391v142.15h-289.802v-20.6h226.625c6.735 0 12.202-5.47 12.202-12.21v-120.1c0-20.93-12.382-40.37-31.229-48.44l44.31 9.03c22.545 5.979 37.894 26.86 37.894 50.17z" fill="#2d4859"/><path d="m369.093 330.43v128.69c0 8.51-6.895 15.42-15.409 15.42h-198.765c-8.504 0-15.409-6.91-15.409-15.42v-128.69c0-8.51 6.905-15.42 15.409-15.42h198.764c8.515 0 15.41 6.91 15.41 15.42z" fill="#e6fdff"/><path d="m369.093 330.43v128.69c0 8.51-6.895 15.42-15.409 15.42h-198.765c-8.504 0-15.409-6.91-15.409-15.42v-5.18h196.515c6.735 0 12.202-5.47 12.202-12.21v-120.1c0-2.23-.14-4.44-.42-6.62h5.876c8.515 0 15.41 6.91 15.41 15.42z" fill="#c1eaf4"/><ellipse cx="254.302" cy="394.775" fill="#aec9d6" rx="17.682" ry="17.678"/><g><path d="m504.5 485.979c0 5.12-2.079 9.74-5.426 13.1-3.348 3.35-7.985 5.42-13.101 5.42h-459.946c-9.024 0-16.539-6.44-18.188-14.98-.22-1.15-.34-2.33-.34-3.54 0-3.16 1.279-6.02 3.358-8.09 2.069-2.07 4.937-3.35 8.094-3.35h474.106c6.327.01 11.443 5.12 11.443 11.44z" fill="#aec9d6"/><path d="m504.5 485.979c0 5.12-2.079 9.74-5.426 13.1-3.348 3.35-7.985 5.42-13.101 5.42h-459.946c-9.024 0-16.539-6.44-18.188-14.98h467.021c5.116 0 9.753-2.07 13.111-5.42 2.558-2.57 4.367-5.86 5.077-9.56h.01c6.326.01 11.442 5.12 11.442 11.44z" fill="#8fb2bc"/></g><path d="m279.774 235.278c-1.181 10.361-.875 19.96 1.133 30.1l.095.479c-1.497 1.684-3.055 3.384-4.673 5.099-6.004 6.396-13.513 9.88-21.255 9.859-7.751.019-15.269-3.471-21.279-9.879-1.711-1.813-3.354-3.609-4.929-5.388 2.07-10.25 2.521-19.802 1.325-30.288z" fill="#ffc7b6"/></g><g><path d="m331.716 167.9c0 18.342-15.56 40.237-46.29 65.124 0 .01-.02.01-.02.01-8.61 7.015-19.39 10.827-30.5 10.807-11.13.02-21.92-3.802-30.55-10.827-30.71-24.867-46.29-46.782-46.29-65.115 0-1.942.08-3.893.24-5.764.43-4.323.67-18.533.75-36.305h151.68c.07 17.752.32 31.942.75 36.255.16 1.922.23 3.873.23 5.815z" fill="#ffdecc"/><path d="m331.716 167.9c0 18.342-15.56 40.237-46.29 65.124 19.51-23.096 24.29-50.555 24.29-65.124 0-1.951-.08-3.913-.24-5.844-.43-4.333-.68-18.483-.75-36.225h22.01c.07 17.752.32 31.942.75 36.255.16 1.921.23 3.872.23 5.814z" fill="#ffc7b6"/></g><path d="m330.74 57.2v68.71h-151.68v-69.119z" fill="#466175"/><path d="m330.74 57.2v68.63h-22.01v-40.59l-47.49 15.88c-2.06.69-4.2 1.04-6.34 1.04s-4.29-.35-6.35-1.04l-69.49-23.24v-21.09z" fill="#2d4859"/><path d="m366.5 44.828-111.601-37.328-111.601 37.328 111.601 37.328z" fill="#4fe8bc"/></g><g><path d="m493.044 467.037h-86.413v-79.262c0-4.143-3.357-7.5-7.5-7.5s-7.5 3.357-7.5 7.5v79.262h-16.544c.912-2.469 1.411-5.136 1.411-7.918v-128.688c0-12.638-10.281-22.919-22.919-22.919h-198.897c-12.638 0-22.919 10.281-22.919 22.919v128.688c0 2.782.499 5.449 1.411 7.918h-16.543v-134.652c0-20.152 13.201-37.747 32.127-42.862l77.229-15.77c.71.772 1.426 1.546 2.153 2.316 7.415 7.899 16.893 12.246 26.657 12.246h.176c9.791 0 19.259-4.339 26.651-12.21.642-.68 1.274-1.364 1.905-2.047l75.966 15.47c18.931 5.113 32.135 22.709 32.135 42.865v20.556c0 4.143 3.357 7.5 7.5 7.5s7.5-3.357 7.5-7.5v-20.556c0-27.025-17.887-50.638-43.497-57.419-.141-.037-.281-.07-.423-.1l-75.347-15.345c-.88-5.957-1.122-11.854-.748-18.035 1.202-.828 2.377-1.699 3.515-2.624 33.033-26.728 49.092-49.926 49.092-70.919 0-2.222-.09-4.391-.274-6.539-.366-3.741-.631-17.023-.706-35.53h-.006v-63.692l30.642-10.249c3.059-1.022 5.121-3.887 5.121-7.112s-2.063-6.09-5.121-7.112l-111.6-37.329c-1.543-.518-3.215-.518-4.758 0l-111.602 37.328c-3.059 1.022-5.121 3.887-5.121 7.112s2.063 6.09 5.121 7.112l30.638 10.247v63.694c-.075 18.523-.34 31.823-.716 35.656-.176 2.019-.266 4.176-.266 6.411 0 20.991 16.052 44.184 49.057 70.887 1.087.884 2.209 1.717 3.355 2.513.347 6.012.078 11.861-.823 17.874l-76.626 15.647c-.141.029-.281.062-.42.099-25.604 6.786-43.485 30.396-43.485 57.416v134.651h-82.677c-10.452.002-18.955 8.499-18.955 18.944 0 14.349 11.684 26.021 26.044 26.021h459.911c14.362 0 26.045-11.672 26.045-26.021 0-10.445-8.504-18.942-18.956-18.942zm-222.339-201.216c-4.54 4.834-10.125 7.494-15.772 7.494-.031 0-.064 0-.094 0-5.617 0-11.214-2.667-15.775-7.527-.793-.84-1.574-1.68-2.34-2.515.823-4.902 1.286-9.691 1.4-14.502 5.366 1.686 10.986 2.57 16.659 2.57h.223c5.6 0 11.146-.854 16.442-2.492.088 4.94.533 9.799 1.353 14.723-.688.749-1.388 1.499-2.096 2.249zm-103.763-220.992 87.957-29.42 87.956 29.42-87.956 29.419-19.75-6.606 22.152-7.492c3.924-1.327 6.029-5.583 4.702-9.507-1.327-3.925-5.587-6.03-9.507-4.702l-40.887 13.828zm37.18 28.252v45.332h-17.566v-51.208zm-18.548 94.869c0-1.802.07-3.52.201-5.026.459-4.682.655-18.424.738-29.511h17.609v16.256c0 4.143 3.357 7.5 7.5 7.5s7.5-3.357 7.5-7.5v-16.256h44.249c4.143 0 7.5-3.357 7.5-7.5s-3.357-7.5-7.5-7.5h-44.249v-40.315l33.397 11.17c.771.259 1.575.388 2.379.388s1.607-.129 2.379-.388l65.959-22.061v51.206h-25.57c-4.143 0-7.5 3.357-7.5 7.5s3.357 7.5 7.5 7.5h25.619c.082 11.072.276 24.778.727 29.373.14 1.633.211 3.37.211 5.166 0 15.727-15.052 36.218-43.541 59.27-7.236 5.883-16.351 9.12-25.706 9.12-.053 0-.108 0-.163 0-9.339 0-18.47-3.244-25.73-9.153-28.464-23.029-43.509-43.514-43.509-59.239zm300.381 329.05h-459.911c-6.09 0-11.044-4.944-11.044-11.021 0-2.174 1.774-3.942 3.955-3.942h161.437c4.143 0 7.5-3.357 7.5-7.5s-3.357-7.5-7.5-7.5h-25.71c-4.366 0-7.919-3.552-7.919-7.918v-128.688c0-4.366 3.553-7.919 7.919-7.919h198.897c4.366 0 7.919 3.553 7.919 7.919v128.688c0 4.366-3.553 7.918-7.919 7.918h-138.689c-4.143 0-7.5 3.357-7.5 7.5s3.357 7.5 7.5 7.5h278.154c2.182 0 3.956 1.769 3.956 3.942 0 6.077-4.955 11.021-11.045 11.021z"/><path d="m254.131 419.953c13.892 0 25.193-11.295 25.193-25.178s-11.302-25.178-25.193-25.178c-13.893 0-25.194 11.295-25.194 25.178s11.302 25.178 25.194 25.178zm0-35.356c5.621 0 10.193 4.565 10.193 10.178s-4.572 10.178-10.193 10.178-10.194-4.565-10.194-10.178 4.573-10.178 10.194-10.178z"/></g></svg>