<svg id="icons" enable-background="new 0 0 64 64" height="512" viewBox="0 0 64 64" width="512" xmlns="http://www.w3.org/2000/svg"><g><g><path d="m57 17.501v4 .01c0 4.271-2.44 7.971-6 9.79-1.5.771-3.2 1.2-5 1.2s-3.5-.43-5-1.2c-3.56-1.819-6-5.52-6-9.8v-4l3-3s3.71 2 8 2 8-2 8-2z" fill="#eac6bb"/></g><g><path d="m54 14.501-.003.002v6.998.01c0 4.271-2.44 7.971-6 9.79-1.075.552-2.255.921-3.499 1.09.492.067.992.11 1.502.11 1.8 0 3.5-.43 5-1.2 3.56-1.819 6-5.52 6-9.79v-.01-4z" fill="#d3b1a9"/></g><g><path d="m15.5 34.511c1.38 0 2.5 1.11 2.5 2.5 0 1.37-1.12 2.5-2.5 2.5s-2.5-1.13-2.5-2.5c0-1.39 1.12-2.5 2.5-2.5z" fill="#fff"/></g><g><path d="m62 47.501c.55 0 1 .45 1 1v2c0 .55-.45 1-1 1-.55 0-1.45 0-2 0h-56c-.55 0-1.45 0-2 0-.55 0-1-.45-1-1v-2c0-.55.45-1 1-1h1 1.5s.95 0 1.5 0h18 1.605c.332 0 .573.002.535.005-.039.003.31.005.859.005h8 1.07c.038 0 .59-.01 1.14-.01h22.791z" fill="#965353"/></g><g><path d="m38 43.511v2c0 1.03-.78 1.891-1.79 1.99h-10c1.01-.1 1.79-.96 1.79-1.99v-.01-1.99h3z" fill="#ccd1d9"/></g><g><path d="m61 40.501v7h-24.79c1.01-.1 1.79-.96 1.79-1.99v-2h-7v-3.01c0-3.31 2.68-6 6-6h4l2 3 3-1 3 1 2-3h4c3.32 0 6 2.69 6 6z" fill="#4a89dc"/></g><g><path d="m55 34.501h-3.003c3.32 0 6 2.69 6 6v7h3.003v-7c0-3.31-2.68-6-6-6z" fill="#3679ce"/></g><g><path d="m28 43.511v1.99.01c0 1.03-.78 1.891-1.79 1.99h-1.21-20c-1.1 0-2-.89-2-2v-16.99c0-1.109.9-2 2-2h21c1.11 0 2 .891 2 2zm-10-6.5c0-1.39-1.12-2.5-2.5-2.5s-2.5 1.11-2.5 2.5c0 1.37 1.12 2.5 2.5 2.5s2.5-1.13 2.5-2.5z" fill="#e6e9ed"/></g><g><path d="m38 14.501-3 3v-5c0-4.97 4.03-9 9-9h8v4c2.76 0 5 2.24 5 5v5l-3-3s-3.71 2-8 2-8-2-8-2z" fill="#965353"/></g><g><path d="m52 10.501c1.103 0 2 .897 2 2v2l3 3v-5c0-2.76-2.24-5-5-5v-4h-3v4c0 1.657 1.343 3 3 3z" fill="#844747"/></g><g><path d="m56 58.501v4h-48v-4c1.11 0 2-.89 2-2h44c0 1.11.89 2 2 2z" fill="#965353"/></g><g><path d="m41 31.301c1.5.771 3.2 1.2 5 1.2s3.5-.43 5-1.2v3.2l-2 3-3-1-3 1-2-3z" fill="#5d9cec"/></g><g><path d="m61 51.501v11h-5v-4c-1.11 0-2-.89-2-2h-44c0 1.11-.89 2-2 2v4h-5v-11z" fill="#844747"/></g><g><path d="m14.99 2.501c-5.521 0-10 4.47-10 10 0 5.52 4.479 10 10 10 5.52 0 10-4.48 10-10 0-5.53-4.48-10-10-10z" fill="#5d9cec"/></g><g><path d="m14.989 23.497c-6.065 0-11-4.934-11-10.998 0-6.065 4.935-11 11-11s11 4.935 11 11c0 6.064-4.934 10.998-11 10.998zm0-19.998c-4.963 0-9 4.037-9 9 0 4.962 4.037 8.998 9 8.998s9-4.036 9-8.998c0-4.963-4.037-9-9-9z" fill="#5d9cec"/></g><g><path d="m15.005 8.502c-.553 0-1-.447-1-1v-1.999c0-.553.447-1 1-1s1 .447 1 1v1.999c0 .553-.447 1-1 1z" fill="#656d78"/></g><g><path d="m19.004 15.5h-7.999c-.553 0-1-.447-1-1s.447-1 1-1h7.999c.553 0 1 .447 1 1s-.447 1-1 1z" fill="#656d78"/></g><g><path d="m11.007 19.5c-.128 0-.257-.024-.381-.075-.511-.211-.754-.796-.544-1.307l2.998-7.268c.211-.511.801-.749 1.306-.543.511.211.754.796.544 1.307l-2.998 7.268c-.16.386-.533.618-.925.618z" fill="#ccd1d9"/></g><g><path d="m19.007 19.5c-.393 0-.765-.232-.924-.618l-3.002-7.268c-.211-.511.031-1.096.542-1.306.509-.209 1.095.031 1.306.542l3.002 7.268c.211.511-.031 1.096-.542 1.306-.125.052-.254.076-.382.076z" fill="#ccd1d9"/></g><circle cx="15.005" cy="9.501" fill="#e6e9ed" r="3"/><circle cx="15.005" cy="9.501" fill="#ccd1d9" r="1"/></g></svg>