<?xml version="1.0" encoding="iso-8859-1"?>
<!-- Generator: Adobe Illustrator 19.0.0, SVG Export Plug-In . SVG Version: 6.00 Build 0)  -->
<svg version="1.1" id="Layer_1" xmlns="http://www.w3.org/2000/svg" xmlns:xlink="http://www.w3.org/1999/xlink" x="0px" y="0px"
	 viewBox="0 0 512 512" style="enable-background:new 0 0 512 512;" xml:space="preserve">
<path style="fill:#75EFFF;" d="M412.746,318.211l-144.6-199.546c-2.821-3.892-7.338-6.198-12.147-6.198
	c-4.808,0-9.325,2.306-12.146,6.198l-144.6,199.546c-2.813,3.883-3.602,8.877-2.119,13.438l55.232,169.987
	c2.008,6.181,7.768,10.364,14.266,10.364h178.735c6.498,0,12.258-4.184,14.266-10.364l55.232-169.987
	C416.347,327.088,415.56,322.094,412.746,318.211z"/>
<path style="fill:#00CEEE;" d="M412.746,318.211l-144.6-199.546c-2.821-3.892-7.338-6.198-12.147-6.198h-0.001V512h89.368
	c6.498,0,12.258-4.184,14.266-10.364l55.232-169.987C416.347,327.088,415.56,322.094,412.746,318.211z"/>
<g>
	<path style="fill:#00479B;" d="M271,375.109V127.467c0-8.284-6.716-15-15-15s-15,6.716-15,15V375.11
		c-4.913,4.228-8.033,10.482-8.033,17.457c0,12.701,10.333,23.033,23.033,23.033s23.033-10.332,23.033-23.033
		C279.033,385.592,275.913,379.337,271,375.109z"/>
	<path style="fill:#00479B;" d="M376.51,38.033h95c4.227,4.913,10.482,8.033,17.457,8.033c12.7,0,23.033-10.332,23.033-23.033
		C512,10.333,501.667,0,488.967,0c-6.975,0-13.23,3.12-17.457,8.033h-194.2C274.801,3.26,269.801,0,264.033,0h-16.066
		c-5.768,0-10.768,3.26-13.277,8.033H40.49C36.264,3.12,30.008,0,23.033,0C10.333,0,0,10.333,0,23.033
		c0,12.701,10.333,23.033,23.033,23.033c6.975,0,13.23-3.12,17.457-8.033h95c-21.995,11.765-42.373,26.845-60.51,44.981
		C26.629,131.366,0,195.653,0,264.033c0,8.284,6.716,15,15,15s15-6.716,15-15c0-117.62,90.324-214.526,205.25-225.038
		c2.65,4.241,7.348,7.071,12.717,7.071h16.066c5.369,0,10.066-2.83,12.717-7.071C391.676,49.507,482,146.413,482,264.033
		c0,8.284,6.716,15,15,15s15-6.716,15-15c0-68.38-26.629-132.667-74.98-181.019C418.883,64.878,398.505,49.798,376.51,38.033z"/>
</g>
<g>
	<path style="fill:#003068;" d="M256,415.6c12.7,0,23.033-10.332,23.033-23.033c0-6.975-3.12-13.229-8.033-17.457V127.467
		c0-8.284-6.716-15-15-15h-0.001V415.6H256z"/>
	<path style="fill:#003068;" d="M376.51,38.033h95c4.227,4.913,10.482,8.033,17.457,8.033c12.7,0,23.033-10.332,23.033-23.033
		C512,10.333,501.667,0,488.967,0c-6.975,0-13.23,3.12-17.457,8.033h-194.2C274.801,3.26,269.801,0,264.033,0h-8.034v46.066h8.034
		c5.369,0,10.066-2.83,12.717-7.071C391.676,49.507,482,146.413,482,264.033c0,8.284,6.716,15,15,15s15-6.716,15-15
		c0-68.38-26.629-132.667-74.98-181.019C418.883,64.878,398.505,49.798,376.51,38.033z"/>
</g>
<g>
</g>
<g>
</g>
<g>
</g>
<g>
</g>
<g>
</g>
<g>
</g>
<g>
</g>
<g>
</g>
<g>
</g>
<g>
</g>
<g>
</g>
<g>
</g>
<g>
</g>
<g>
</g>
<g>
</g>
</svg>
