<svg id="Capa_1" enable-background="new 0 0 495.891 495.891" height="512" viewBox="0 0 495.891 495.891" width="512" xmlns="http://www.w3.org/2000/svg"><g><path id="XMLID_771_" d="m153.947 282.405h30v89.323h-30z" fill="#a1b8d8" transform="matrix(-.707 -.707 .707 -.707 57.132 677.799)"/><path id="XMLID_483_" d="m156.144 277.102h15v89.323h-15z" fill="#c3dafd" transform="matrix(-.707 -.707 .707 -.707 51.819 664.993)"/><path id="XMLID_222_" d="m40.899 324.922h102.866v157.518h-102.866z" fill="#2b4c9f" transform="matrix(-.707 -.707 .707 -.707 -127.824 754.415)"/><path id="XMLID_396_" d="m84.801 343.106h51.433v157.517h-51.433z" fill="#213b82" transform="matrix(-.707 -.707 .707 -.707 -109.644 798.313)"/><circle id="XMLID_560_" cx="317.544" cy="178.469" fill="#c3dafd" r="177.5"/><path id="XMLID_950_" d="m255.618 405.891h239.999v30h-239.999z" fill="#77b0fb"/><path id="XMLID_949_" d="m165.617 465.891h180v30h-180z" fill="#84d9f3"/><path d="m395.099 100.915c6.007-6.007 41.957-41.957 47.957-47.957-69.318-69.318-181.705-69.318-251.023 0-69.527 69.526-69.089 181.934 0 251.022l47.939-47.939c0-.001-.001-.001-.001-.001l.019-.018c19.87 19.881 47.311 32.195 77.572 32.195 60.507 0 109.732-49.226 109.732-109.732-.001-30.26-12.314-57.7-32.195-77.57z" fill="#e4f3ff"/><path id="XMLID_821_" d="m239.972 100.896c43.933-43.522 112.871-42.22 155.127.019l-155.109 155.107c-42.805-42.826-42.965-112.241-.018-155.126z" fill="#fbf4f4"/><path d="m183.882 0v30h-38.787l149.852 149.852 45.999-46.002c8.341 8.341 68.294 68.294 80.369 80.369-3.475 10.062-8.372 19.467-14.456 27.971-17.228-17.227-54.407-54.407-65.912-65.912l-45.999 46.001-171.066-171.066v38.787h-30v-90z" fill="#9fe04d"/></g></svg>